<svg width="80" height="37" viewBox="0 0 80 37" fill="none" xmlns="http://www.w3.org/2000/svg">
<path fill-rule="evenodd" clip-rule="evenodd" d="M5.15438 19.1786C3.72942 19.1786 2.23757 19.9501 1.69381 21.1014L1.6161 21.1006C1.64626 20.9806 1.69718 20.8623 1.70569 20.749C1.83769 18.9795 2.5617 17.5713 3.96697 17.0839C4.8503 16.778 5.72636 16.6543 6.39448 16.5156C7.10892 16.3674 7.84251 16.1946 8.27309 16.0695L7.79763 14.679C7.01454 14.8894 6.28591 15.0423 5.06 15.2853C4.5416 15.3886 3.97584 15.4772 3.31392 15.7489C1.06471 16.6723 0.078125 18.516 0.078125 21.9917C0.078125 25.114 1.6766 27.578 4.74172 27.578C7.55883 27.578 9.27049 25.4342 9.27049 23.28C9.27049 20.7947 7.63672 19.1786 5.15438 19.1786ZM4.7458 26.1914C2.86117 26.1914 1.78145 24.5026 1.78145 22.576C2.22728 21.4542 3.61144 20.5487 4.77898 20.5487C6.48496 20.5487 7.57302 21.583 7.57302 23.3529C7.57302 24.9963 6.34286 26.1914 4.7458 26.1914ZM12.1222 24.9704C12.1222 24.9704 12.0906 24.9697 12.0448 24.9697C12.081 24.8391 12.1222 24.6467 12.1222 24.4562V19.087H10.4419V27.2989H11.9494L16.7624 21.3959H16.8404C16.8025 21.5245 16.762 21.742 16.762 21.9304V27.2989H18.4437V19.087H16.9361L12.1222 24.9704ZM24.8383 23.0891V23.0525C25.8323 22.7052 26.3197 22.0659 26.3197 21.1157C26.3197 19.7449 25.1759 18.8633 23.1513 18.8633C21.9871 18.8633 20.7616 19.1779 19.7519 19.9312L20.414 21.0962C21.1696 20.5176 22.1354 20.2304 22.9258 20.2304C24.0318 20.2304 24.6274 20.6771 24.6274 21.4079C24.6274 22.066 24.1068 22.5297 23.2638 22.5297H21.9321V23.8056H23.3573C24.3882 23.8056 24.9043 24.1493 24.9043 24.8257C24.9043 25.6296 24.074 26.178 22.8155 26.178C21.9295 26.178 20.8902 25.8058 20.2159 25.2761L19.5515 26.4585C20.284 27.1054 21.5475 27.5784 23.02 27.5784C25.0436 27.5784 26.5918 26.5435 26.5918 25.0265C26.5916 24.021 25.9636 23.2174 24.8383 23.0891ZM33.9638 22.456H29.443V19.087H27.7629V27.2989H29.443V23.7322H33.9638V27.2989H35.6455V19.087H33.9638V22.456ZM40.9123 18.8632C38.4344 18.8632 36.8171 20.7614 36.8171 23.2641C36.8171 25.7345 38.4434 27.5782 41.3962 27.5782C42.8208 27.5782 44.0336 27.1521 44.907 26.4585L44.243 25.2761C43.5961 25.7489 42.6095 26.1896 41.4448 26.1896C39.6008 26.1896 38.7097 25.2127 38.5481 23.7771H38.5539H44.9927C45.0101 23.6093 45.0204 23.4386 45.0204 23.2643C45.0202 20.7614 43.7801 18.8632 40.9123 18.8632ZM38.5726 22.4995C38.7862 21.228 39.7408 20.2408 40.9948 20.2408C42.5145 20.2408 43.253 21.2364 43.3861 22.4995H38.5726ZM50.8065 26.1565C49.0911 26.1565 47.8283 24.8996 47.8283 23.1159C47.8283 21.592 48.8356 20.266 50.7098 20.266C51.562 20.266 52.4209 20.4856 53.4066 21.1044C53.4066 21.1044 53.8352 20.3527 54.0905 19.8977C53.081 19.1999 51.9149 18.8538 50.6647 18.8538C47.9509 18.8538 46.1303 20.7108 46.1303 23.2134C46.1303 25.6515 47.9452 27.5782 50.6927 27.5782C52.04 27.5782 53.2148 27.2008 54.0882 26.5072L53.4242 25.3244C52.7771 25.7976 51.8408 26.1565 50.8065 26.1565Z" fill="white"/>
<g opacity="0.6">
<g opacity="0.6">
<path opacity="0.6" fill-rule="evenodd" clip-rule="evenodd" d="M49.2565 8.59106C51.2153 8.59106 52.3337 7.37923 52.4091 5.66431H49.9636C49.9636 6.25145 49.6908 6.59261 49.2183 6.59261C48.7464 6.59261 48.4748 6.23101 48.4748 5.66431H46.0279C46.0966 7.41165 47.1323 8.59106 49.2565 8.59106ZM50.7542 9.23212L47.6773 13.6532H47.5551C47.5551 13.6532 47.6156 13.3351 47.6156 13.0555C47.6156 12.7751 47.6168 9.23212 47.6168 9.23212H44.79L44.7886 17.4444H47.4937L50.5705 13.0482H50.693C50.693 13.0482 50.6314 13.3096 50.6314 13.5852V17.4444H53.4588V9.23212H50.7542ZM38.9563 9.02225C36.3 9.02225 34.2984 10.8711 34.2984 13.3501C34.2984 15.8044 36.3 17.6543 38.9563 17.6543C41.6393 17.6543 43.6395 15.8044 43.6395 13.3501C43.6396 10.8711 41.6395 9.02225 38.9563 9.02225ZM38.9563 15.1011C37.9575 15.1011 37.2488 14.3237 37.2488 13.3499C37.2488 12.3509 37.9575 11.5742 38.9563 11.5742C39.9814 11.5742 40.6643 12.3509 40.6643 13.3499C40.6643 14.3237 39.9816 15.1011 38.9563 15.1011ZM28.4552 12.3349C28.3392 12.4752 28.3293 12.5506 28.3293 12.5506H28.2065C28.2065 12.5506 28.1832 12.4695 28.0724 12.3349C27.9061 12.1339 25.4596 9.23019 25.4596 9.23019H23.2305V17.4423H25.9551V13.9947C25.9551 13.623 25.8934 13.3964 25.8934 13.3964H26.0167L28.207 15.8499H28.3252L30.3553 13.3964H30.4773C30.4773 13.3964 30.4163 13.6197 30.4163 13.9947V17.4421H33.1417V9.23001H30.9116C30.912 9.23019 28.5505 12.2216 28.4552 12.3349Z" fill="white"/>
</g>
</g>
<path fill-rule="evenodd" clip-rule="evenodd" d="M71.4946 30.5813L68.6642 27.7737L65.834 30.5813L68.6635 36.4512L71.4946 30.5813Z" fill="white"/>
<g opacity="0.6">
<g opacity="0.6">
<path opacity="0.6" fill-rule="evenodd" clip-rule="evenodd" d="M68.6628 2.85962C68.0637 3.16429 60.2344 7.27379 60.2344 13.8401C60.2344 19.4562 64.8421 27.975 64.8421 27.975L68.6628 24.1737L72.4832 27.975C72.4832 27.975 77.0914 19.4562 77.0914 13.8401C77.0914 7.27379 69.2619 3.16447 68.6628 2.85962ZM71.1849 21.6092L68.6628 19.0994L66.1399 21.6092C66.0114 21.261 64.3216 16.7177 64.3216 13.753C64.3216 9.75472 68.3593 7.51486 68.6628 7.35063C68.9662 7.51486 73.0041 9.75472 73.0041 13.753C73.0041 16.7177 71.3137 21.261 71.1849 21.6092ZM68.649 11.6265C67.5634 11.6265 66.6826 12.501 66.6826 13.5798C66.6826 14.6588 67.5634 15.5333 68.649 15.5333C69.7358 15.5333 70.6161 14.6588 70.6161 13.5798C70.6161 12.501 69.7358 11.6265 68.649 11.6265Z" fill="white"/>
</g>
</g>
<path opacity="0.6" d="M79.968 2.8615L77.0879 0L74.2068 2.86082L77.087 5.72232L79.968 2.8615Z" fill="white"/>
</svg>
