<svg width="42" height="57" viewBox="0 0 42 57" fill="none" xmlns="http://www.w3.org/2000/svg">
<path opacity="0.5" fill-rule="evenodd" clip-rule="evenodd" d="M41.3133 9.04932V13.0376C34.9638 18.2752 18.7662 21.9905 10.537 21.9905C2.30705 21.9905 3.63764 21.7176 0.4375 21.2291V20.7715C3.37808 21.3958 6.78632 21.5517 10.3963 21.3854C19.4256 20.9766 28.285 18.3237 35.6626 13.4866C37.8137 12.0818 39.7132 10.5702 41.3133 9.04932Z" fill="white"/>
<path opacity="0.5" fill-rule="evenodd" clip-rule="evenodd" d="M41.3133 0V7.36084C39.7837 9.33092 37.6645 11.2821 35.0732 13.0564C27.8251 18.0403 18.6363 20.8106 9.62631 21.1903C6.3286 21.3262 3.1274 21.1516 0.4375 20.5854V0H41.3133Z" fill="white"/>
<path fill-rule="evenodd" clip-rule="evenodd" d="M7.51938 42.8204V37.715C5.86733 37.7629 5.06401 38.9331 5.06401 40.1739C5.06401 41.4615 6.00926 42.7263 7.51938 42.8204ZM10.8024 40.3145C10.8024 38.6055 9.50159 37.7631 8.32305 37.715V42.8668C9.64635 42.7977 10.8024 41.9545 10.8024 40.3145ZM6.22002 35.3672C7.05349 35.3672 7.51743 34.701 7.51743 33.7138C7.51743 32.5878 6.8461 31.8084 6.08093 31.8084C5.57052 31.8084 4.73864 32.1064 4.73864 33.4136C4.73882 34.3121 5.20062 35.3672 6.22002 35.3672ZM8.74742 28.2797C8.74742 28.0499 8.5379 27.7058 8.23683 27.7058H7.93595C7.93595 27.8887 7.91305 28.2327 7.91305 28.5084V28.8771C8.39739 28.9238 8.74742 28.6461 8.74742 28.2797ZM8.35286 30.4172C8.86167 30.4172 9.00094 30.0489 9.00094 29.7046C9.00094 29.267 8.67734 28.9932 8.14404 28.9932C8.07379 28.9932 8.00389 28.9932 7.91288 29.0163V29.7046C7.91288 30.1864 7.86427 30.4172 8.35286 30.4172ZM17.1652 46.1421H17.1262C17.0882 46.5578 16.4396 48.2974 16.2109 48.98C16.5169 48.98 16.7077 49.0177 17.0525 49.0177C17.4711 49.0177 17.6989 49.0177 18.0054 48.98C17.7757 48.3347 17.4711 47.5789 17.3573 47.088C17.2044 46.5578 17.1652 46.3327 17.1652 46.1421ZM13.2567 46.1421H13.1797C13.1797 46.5578 12.5337 48.2974 12.3038 48.98C12.6105 48.98 12.8014 49.0177 13.144 49.0177C13.5639 49.0177 13.7539 49.0177 14.0967 48.98C13.8295 48.3347 13.5639 47.5789 13.4493 47.088C13.2943 46.5578 13.2567 46.3327 13.2567 46.1421ZM9.86457 50.6512H9.81791C9.81791 50.8574 9.4929 51.7772 9.35434 52.121H9.79432H10.3047C10.1651 51.7989 10.0257 51.388 9.95914 51.1341C9.88977 50.8574 9.86457 50.7427 9.86457 50.6512ZM9.7984 45.7652C9.30272 45.7652 8.53967 46.0302 8.53967 47.2762C8.53967 48.1086 8.96049 49.0924 9.91337 49.0924C10.7138 49.0924 11.1318 48.4877 11.1318 47.5416C11.132 46.4845 10.5247 45.7652 9.7984 45.7652ZM16.5631 32.3126C16.4453 32.841 16.3303 33.0712 16.0291 33.9681C16.2613 33.99 16.537 33.99 16.793 33.99C16.909 33.99 17.0266 33.99 17.1416 33.9681C16.9326 33.2553 16.7485 32.8872 16.6088 32.3126H16.5631ZM24.2469 28.2797C24.2469 28.0499 24.0386 27.7058 23.736 27.7058H23.4365C23.4365 27.8887 23.4136 28.2327 23.4136 28.5084V28.8771C23.9001 28.9238 24.2469 28.6461 24.2469 28.2797ZM23.7211 51.5018H24.0901H24.2535C24.1607 51.1564 24.0668 50.9739 23.9741 50.6733C23.9068 50.951 23.8594 51.0641 23.7211 51.5018ZM31.615 35.3672C32.449 35.3672 32.9125 34.701 32.9125 33.7138C32.9125 32.5878 32.2402 31.8084 31.4748 31.8084C30.9647 31.8084 30.1318 32.1064 30.1318 33.4136C30.1318 34.3121 30.617 35.3672 31.615 35.3672ZM16.7765 43.7329C18.4995 43.7329 19.4659 42.4458 19.4659 40.5251C19.4659 38.3941 18.075 36.8716 16.4919 36.8716C15.4305 36.8716 13.6832 37.4358 13.6832 39.9876C13.6833 41.6951 14.6754 43.7329 16.7765 43.7329ZM15.7367 30.325C15.527 29.7945 15.2953 29.1758 15.203 28.7615C15.0865 28.3037 15.0423 28.1419 15.0423 27.9809H14.9942C14.9717 28.3037 14.4616 29.7719 14.2514 30.325C14.5074 30.3471 14.6697 30.3471 14.9467 30.3471C15.2953 30.3471 15.4558 30.3471 15.7367 30.325ZM9.62649 35.3447C10.0668 35.3447 10.4841 35.1156 10.4841 34.5887C10.4841 33.9681 10.1131 33.5077 9.41874 33.5077C9.30147 33.5077 9.21081 33.5077 9.09319 33.5307V34.4735C9.09319 34.8608 9.02542 35.3447 9.62649 35.3447ZM23.8525 30.4172C24.3619 30.4172 24.5018 30.0489 24.5018 29.7046C24.5018 29.267 24.1767 28.9932 23.6444 28.9932C23.5763 28.9932 23.5044 28.9932 23.4136 29.0163V29.7046C23.4136 30.1864 23.3669 30.4172 23.8525 30.4172ZM21.0484 30.4385C21.6734 30.4385 22.0451 29.9122 22.0451 29.1303C22.0451 28.2797 21.5354 27.6591 20.9338 27.6591C20.5392 27.6591 19.8908 27.8887 19.8908 28.9236C19.8909 29.6121 20.2619 30.4385 21.0484 30.4385ZM35.6076 50.8327C35.6076 50.6733 35.491 50.4669 35.306 50.4669H35.1204C35.0986 50.5806 35.0986 50.7887 35.0986 50.9739V51.2028C35.3981 51.2238 35.6076 51.0641 35.6076 50.8327ZM35.2366 51.2724C35.1884 51.2724 35.1428 51.2724 35.0986 51.2942V51.7314C35.0986 52.0294 35.0732 52.167 35.3759 52.167C35.6989 52.167 35.7685 51.9376 35.7685 51.708C35.7685 51.4555 35.584 51.2724 35.2366 51.2724ZM12.2367 22.8773C8.11654 22.8773 4.15745 22.5656 0.4375 21.9993V56.3886H41.3131V16.5188C34.294 20.4098 23.8452 22.8773 12.2367 22.8773ZM35.947 27.0163L35.9706 27.0392V27.1525C35.9706 27.2688 35.9942 27.4753 36.2512 27.4753C36.5509 27.4753 36.7354 27.2002 36.828 27.0392L36.9676 27.131C36.7824 27.384 36.4812 27.6813 36.1324 27.6813C35.8554 27.6813 35.6697 27.5451 35.6001 27.3162C35.8088 27.2002 35.9016 27.0853 35.947 27.0163ZM34.5107 27.5904H34.649C34.696 27.5904 34.7658 27.6126 34.8133 27.6126H34.9735H35.1364C35.2056 27.6126 35.2744 27.5904 35.3223 27.5904H35.4602V27.7058H35.3675C35.1364 27.7058 35.1364 28.0272 35.1364 28.2797V29.3825C35.1364 29.567 35.113 29.9798 35.113 30.1418H35.1364C36.5255 28.3729 35.5293 29.7945 37.2438 27.5689L37.3824 27.5208V28.0956V29.7508C37.3824 30.0491 37.3146 30.3945 37.5919 30.3945H37.6851V30.5083H37.5467C37.3824 30.5083 37.36 30.4843 37.2231 30.4843C37.1521 30.4843 37.0831 30.4843 37.0127 30.5083H36.8746H36.7352V30.3945H36.8047C37.0375 30.3945 37.0375 30.0491 37.0375 29.7256V28.7851C37.0375 28.5319 37.0375 28.3483 37.1071 28.0501H37.0833C36.7128 28.6462 35.7616 29.7256 34.9737 30.5564L34.8135 30.577V29.8426V28.2799C34.8135 28.0041 34.8593 27.706 34.6049 27.706H34.5108V27.5904H34.5107ZM35.9243 31.5788C36.3179 31.5788 36.5509 31.2313 36.6676 31.0024L36.8278 31.1411C36.5952 31.4611 36.201 31.8539 35.7612 31.8539C35.4156 31.8539 35.1832 31.6687 35.0901 31.3711C35.3459 31.2315 35.4855 31.0717 35.5299 31.0024H35.5785C35.5536 31.0717 35.5536 31.1178 35.5536 31.1853C35.554 31.3007 35.6001 31.5788 35.9243 31.5788ZM34.4642 31.7385C34.5348 31.7385 34.6041 31.7157 34.6962 31.7157H34.8818V31.8747H34.7661C34.4422 31.8747 34.4643 32.2668 34.4643 32.6118V34.0361C34.4643 34.2426 34.4188 34.7723 34.4188 35.0018H34.4422C36.2269 32.7254 34.9528 34.5635 37.1523 31.6685L37.3373 31.6452C37.3159 32.1501 37.3159 32.2895 37.3159 32.3804V34.495C37.3159 34.8858 37.2689 35.3232 37.616 35.3232H37.7314V35.4585H37.5229C37.3157 35.4585 37.2901 35.4374 37.1291 35.4374C37.0375 35.4374 36.9445 35.4374 36.8746 35.4585H36.6891H36.481V35.3232H36.5954C36.8965 35.3232 36.8965 34.8606 36.8965 34.4481V33.2786C36.8965 32.9099 36.8965 32.6789 36.9674 32.3124L36.9444 32.2895C36.4576 33.071 35.2529 34.4733 34.2318 35.5061L34.0226 35.5528C34.0478 35.2078 34.0478 34.9531 34.0478 34.6101V32.6116C34.0478 32.2666 34.0703 31.8745 33.77 31.8745H33.6321V31.7156H33.8148C33.886 31.7156 33.9564 31.7383 34.0478 31.7383C34.1177 31.7594 34.1871 31.7594 34.2575 31.7594C34.3261 31.7596 34.3964 31.7596 34.4642 31.7385ZM31.0357 27.5904H31.1751C31.2207 27.5904 31.2912 27.6126 31.3368 27.6126H31.5218H31.6593C31.7301 27.6126 31.8002 27.5904 31.8456 27.5904H31.9861V27.7058H31.9153C31.6595 27.7058 31.6868 28.0272 31.6868 28.2797V29.3825C31.6868 29.567 31.6595 29.9798 31.6378 30.1418H31.6595C33.0509 28.3729 32.0553 29.7945 33.7707 27.5689L33.9082 27.5208V28.0956V29.7508C33.9082 30.0491 33.8622 30.3945 34.1413 30.3945H34.2325V30.5083H34.0709C33.9082 30.5083 33.8865 30.4843 33.7469 30.4843C33.6766 30.4843 33.6078 30.4843 33.5375 30.5083H33.4221H33.2585V30.3945H33.3527C33.561 30.3945 33.5839 30.0491 33.5839 29.7256V28.7851C33.5839 28.5319 33.561 28.3483 33.6319 28.0501H33.6076C33.2363 28.6462 32.3095 29.7256 31.4986 30.5564L31.3366 30.577C31.3366 30.302 31.3591 30.1164 31.3591 29.8426V28.2799C31.3591 28.0041 31.3817 27.706 31.1296 27.706H31.0355V27.5904H31.0357ZM23.2344 45.8025C23.1576 45.8025 23.084 45.84 23.0045 45.84V48.1479C23.0045 48.5997 23.0045 49.0554 23.3114 49.0554H23.4643V49.2066H23.2342C23.1574 49.2066 23.1207 49.2066 23.0464 49.1684H22.8549H22.624C22.5471 49.2066 22.5099 49.2066 22.4343 49.2066H22.2425V49.0554H22.3571C22.6241 49.0554 22.6241 48.5606 22.6241 48.2226V46.6344C22.6241 46.0656 22.6628 45.8023 22.2427 45.8023V45.6511C22.4724 45.6888 22.5888 45.6888 22.7036 45.6888C23.0467 45.6888 22.93 45.6511 23.5028 45.6511C24.2668 45.6511 24.6094 46.1419 24.6094 46.6716C24.6094 47.3141 24.0369 47.6926 23.5405 47.6926C23.4258 47.6926 23.351 47.6926 23.3116 47.6554V47.5416H23.5028C23.8827 47.5416 24.1892 47.1631 24.1892 46.7097C24.1892 46.1421 23.7688 45.8025 23.2344 45.8025ZM22.5615 40.3615V42.0007C22.5615 42.8204 22.5615 43.6384 23.1759 43.6384H23.4344V43.9443H23.0098C22.8677 43.9443 22.7283 43.9198 22.5831 43.8962C22.4439 43.873 22.2773 43.8499 22.1368 43.8499C21.9943 43.8499 21.8292 43.873 21.6647 43.8962C21.5242 43.92 21.4034 43.9443 21.2627 43.9443H20.8122V43.6384H21.0753C21.7353 43.6384 21.6869 42.5612 21.6869 42.0007V38.5583C21.6869 37.738 21.7585 36.9895 21.0984 36.9895H20.8365V36.686H21.2386C21.3807 36.686 21.524 36.7084 21.6645 36.7322C21.829 36.7569 21.9941 36.7569 22.1625 36.7569C22.2771 36.7569 22.4201 36.7569 22.5613 36.7322C22.7281 36.7084 22.8902 36.686 23.0572 36.686H23.4599V36.9895H23.1982C22.5613 36.9895 22.5613 37.738 22.5613 38.5583V39.9169C23.1042 39.9874 24.0001 40.082 25.0174 40.082C26.0544 40.082 26.9528 39.9876 27.4967 39.9169V38.5583C27.4967 37.738 27.4967 36.9895 26.8579 36.9895H26.5985V36.686H27.0003C27.1424 36.686 27.3308 36.7084 27.4967 36.7322C27.6381 36.7569 27.7799 36.7569 27.8961 36.7569C28.0625 36.7569 28.2271 36.7569 28.3932 36.7322C28.5355 36.7084 28.6777 36.686 28.8183 36.686H29.2195V36.9895H28.9595C28.2983 36.9895 28.3708 37.738 28.3708 38.5583V42.0007C28.3708 42.5612 28.3211 43.6384 28.9831 43.6384H29.2437V43.9443H28.7936C28.6509 43.9443 28.5355 43.9198 28.3932 43.8962C28.2271 43.873 28.0627 43.8499 27.9216 43.8499C27.7799 43.8499 27.6152 43.873 27.4721 43.8962C27.331 43.92 27.1889 43.9443 27.0459 43.9443H26.6212V43.6384H26.8832C27.4969 43.6384 27.4969 42.8204 27.4969 42.0007V40.3615C26.8352 40.3839 25.7737 40.4539 25.0176 40.4539C24.285 40.4539 23.2229 40.3839 22.5615 40.3615ZM12.1761 35.3234H12.3136V35.4587H12.1056H11.8963C11.8047 35.4376 11.7359 35.4376 11.6406 35.4376C11.5487 35.4376 11.4797 35.4376 11.3882 35.4587H11.1779H11.016V35.3234H11.1559C11.5487 35.3234 11.7359 34.7723 12.1535 33.5307C12.5696 32.3806 12.6604 32.1064 12.7542 31.6925L12.9631 31.6452C13.4495 33.2551 13.6346 33.5981 13.9589 34.495C14.0978 34.8393 14.259 35.3232 14.5624 35.3232H14.6532V35.4585H14.4923H14.2378C14.1443 35.4374 14.0518 35.4374 13.9589 35.4374C13.8888 35.4374 13.7978 35.4374 13.728 35.4585H13.4951H13.3122V35.3232H13.4039C13.8203 35.3232 13.7034 35.0018 13.3784 34.1517C13.2875 33.8525 12.8706 32.7713 12.8016 32.3124H12.7793C12.7088 32.6555 12.6394 32.9543 12.4294 33.5545C12.1056 34.5408 11.9665 34.7722 11.9665 35.0478C11.9665 35.1618 11.9445 35.3234 12.1761 35.3234ZM16.7304 36.5452C19.0882 36.5452 20.5046 38.464 20.5046 40.2898C20.5046 42.6326 18.712 44.0835 16.4921 44.0835C13.9413 44.0835 12.6432 42.0007 12.6432 40.1975C12.6432 38.1617 14.2253 36.5452 16.7304 36.5452ZM17.2353 34.1727C17.1182 34.1977 16.9796 34.1977 16.8627 34.1977C16.537 34.1977 16.2381 34.1977 15.9828 34.1727C15.8903 34.3789 15.7282 34.7953 15.7282 35.002C15.7282 35.1383 15.7049 35.3234 15.9379 35.3234H16.0995V35.4587H15.9136H15.7282C15.659 35.4376 15.5646 35.4376 15.497 35.4376C15.404 35.4376 15.334 35.4376 15.2417 35.4587H15.0806H14.8699V35.3234H14.9861C15.4748 35.3234 16.2838 32.6118 16.5629 31.6454L16.7712 31.5788C17.721 34.8395 18.0688 35.3234 18.3457 35.3234H18.4867V35.4587H18.2774H18.0918C18.023 35.4376 17.9527 35.4376 17.8598 35.4376C17.7672 35.4376 17.6504 35.4376 17.5575 35.4587H17.3259H17.1854V35.3234H17.3259C17.6735 35.3234 17.4193 34.6317 17.2353 34.1727ZM20.2539 35.553C19.1187 35.553 18.145 34.7723 18.145 33.5758C18.145 32.5186 18.979 31.6454 20.1837 31.6454C20.7634 31.6454 20.6687 31.7385 21.274 31.7385C21.3886 31.7385 21.4344 31.7385 21.5281 31.7157C21.5052 31.9223 21.48 32.3577 21.48 32.5878C21.48 32.635 21.5052 32.6557 21.5052 32.7018H21.3187C21.2951 31.8082 20.4164 31.8537 20.0669 31.8537C19.35 31.8537 18.6319 32.4962 18.6319 33.5981C18.6319 34.7008 19.4657 35.3445 20.2537 35.3445C20.8573 35.3445 21.2951 35.0476 21.5052 34.6562H21.6888C21.4346 35.184 21.2742 35.553 20.2539 35.553ZM24.1076 31.8985H23.7152V34.495C23.7152 34.7951 23.7152 35.3232 24.0386 35.3232H24.1543V35.4828H23.9904C23.8988 35.4828 23.8075 35.4584 23.7358 35.4584C23.6678 35.4372 23.5979 35.4372 23.5279 35.4372C23.4597 35.4372 23.3673 35.4372 23.2967 35.4584C23.2264 35.4584 23.1581 35.4828 23.0875 35.4828H22.8789V35.3232H22.9956C23.2965 35.3232 23.2965 34.8858 23.2965 34.5175V31.8985H22.9493C22.4865 31.8985 22.1622 31.9223 22.0218 32.5878H21.8604C21.9984 31.8747 21.9984 31.8537 22.0456 31.6452C22.6697 31.7156 23.2263 31.7156 23.481 31.7156C24.4314 31.7156 24.8026 31.6683 25.1285 31.6452C25.1285 31.7594 25.1033 32.037 25.0123 32.5878H24.8489C24.9631 31.8308 24.4783 31.8985 24.1076 31.8985ZM25.4994 31.8748H25.3836V31.7159H25.5665C25.6362 31.7159 25.7059 31.7386 25.7764 31.7386C25.8692 31.7598 25.9387 31.7598 26.0075 31.7598C26.0776 31.7598 26.145 31.7598 26.2176 31.7386C26.285 31.7386 26.3783 31.7159 26.4484 31.7159H26.6333V31.8748H26.5167C26.2176 31.8748 26.2176 32.2669 26.2176 32.6791V33.3919C26.4711 33.4136 26.8887 33.4826 27.3968 33.4826C27.8833 33.4826 28.3249 33.4136 28.5805 33.3919V32.6791C28.5805 32.2668 28.5805 31.8748 28.2793 31.8748H28.1625V31.7159H28.325C28.4178 31.7159 28.4876 31.7386 28.5805 31.7386C28.6499 31.7598 28.7189 31.7598 28.7634 31.7598C28.8573 31.7598 28.9268 31.7598 28.9978 31.7386C29.0654 31.7386 29.1372 31.7159 29.205 31.7159H29.3918V31.8748H29.2758C28.974 31.8748 28.998 32.2669 28.998 32.6791V34.4735C28.998 34.747 28.974 35.3234 29.2976 35.3234H29.4144V35.4587H29.205H28.9978C28.9268 35.4376 28.8573 35.4376 28.7886 35.4376C28.7187 35.4376 28.6261 35.4376 28.5559 35.4587H28.3719H28.1622V35.3234H28.2789C28.5802 35.3234 28.5802 34.886 28.5802 34.4735V33.6215C28.2541 33.6465 27.7456 33.6687 27.3965 33.6687C27.0266 33.6687 26.5162 33.6465 26.2172 33.6215V34.4735C26.2172 34.886 26.2172 35.3234 26.5163 35.3234H26.6329V35.4587H26.4262H26.2172C26.1448 35.4376 26.0773 35.4376 26.0072 35.4376C25.9383 35.4376 25.8448 35.4376 25.776 35.4587H25.5903H25.3832V35.3234H25.4991C25.8 35.3234 25.8 34.747 25.8 34.4735V32.6791C25.8005 32.2668 25.8216 31.8748 25.4994 31.8748ZM24.6862 49.0549C25.0694 49.1315 25.2216 48.9042 25.5273 48.5247C25.982 47.8815 26.2529 47.5789 26.6719 47.353C26.2529 46.937 25.4116 45.8022 24.917 45.8022H24.8384V45.6513H24.9922C25.1072 45.6513 25.1441 45.6888 25.3742 45.6888H25.5642C25.6045 45.6888 25.6786 45.6513 25.7535 45.6513H25.9052V45.8022C25.8319 45.8022 25.7173 45.84 25.7173 45.8772C25.7173 46.1047 26.4418 46.8984 26.9361 47.4279C26.0588 48.3758 25.564 49.5099 24.6856 49.1686V49.0549H24.6862ZM26.6326 49.0549H26.7851C27.2056 49.0549 27.0512 47.8085 27.0512 47.3525C27.0512 46.5574 27.1678 45.8022 26.7479 45.8022H26.6326V45.651H26.8224C26.8972 45.651 26.9769 45.6888 27.0512 45.6888H27.2409H27.4343C27.5113 45.6888 27.5867 45.651 27.6605 45.651H27.8137V45.8022H27.7004C27.3202 45.8022 27.3947 46.5574 27.3947 47.3525C27.3947 47.8085 27.282 49.0549 27.7004 49.0549H27.8137V49.2059H27.6237C27.5867 49.2059 27.5111 49.2059 27.4343 49.1686H27.2409H27.0512C26.9769 49.2059 26.8972 49.2059 26.8224 49.2059H26.6326V49.0549ZM27.5485 47.4276C27.7383 47.1631 28.7684 46.1419 28.7684 45.877C28.7684 45.8399 28.6164 45.802 28.5789 45.802V45.6508H28.7304C28.7684 45.6508 28.8433 45.6887 28.9215 45.6887H29.1099C29.3058 45.6887 29.4152 45.6508 29.4937 45.6508H29.6452V45.802H29.5307C29.0737 45.802 28.4638 46.6716 27.8136 47.3523C29.2243 48.223 28.9211 49.0547 29.645 49.0547H29.7981V49.1686C29.6844 49.2059 29.5705 49.2429 29.4543 49.2429C28.7684 49.2429 28.2351 48.2232 27.5485 47.4276ZM29.6453 33.5307C29.6453 32.4727 30.3859 31.6454 31.5931 31.6454C32.7247 31.6454 33.3993 32.635 33.3993 33.5758C33.3993 34.7953 32.5419 35.553 31.4748 35.553C30.2489 35.553 29.6453 34.4735 29.6453 33.5307ZM29.8518 27.706H29.7621V27.5905H29.9015C29.97 27.5905 30.0397 27.6127 30.108 27.6127H30.2714C30.3183 27.6127 30.386 27.6372 30.4325 27.6127C30.4801 27.6127 30.5264 27.5905 30.573 27.5905H30.6878V27.706H30.6177C30.3635 27.706 30.1774 27.9114 29.9013 28.187L29.1371 28.9003C29.321 28.9677 29.6219 29.2212 29.7617 29.4057C30.2711 30.0024 30.4098 30.3943 30.5727 30.3943H30.8037V30.4843C30.7105 30.5314 30.6176 30.5314 30.5028 30.5314C29.9929 30.5314 29.7617 29.8642 28.8576 28.9677C29.7851 28.0956 29.945 27.9114 29.945 27.82C29.9452 27.7736 29.9233 27.706 29.8518 27.706ZM28.1164 30.3943H28.2101C28.4641 30.3943 28.4386 29.8871 28.4386 29.6121V28.3481C28.4386 28.1195 28.4641 27.7058 28.2101 27.7058H28.1164V27.5904H28.2543C28.3258 27.5904 28.3719 27.5904 28.4386 27.6126H28.6039H28.7641C28.811 27.5904 28.8811 27.5904 28.9495 27.5904H29.0895V27.7058H28.9971C28.7643 27.7058 28.7643 28.0272 28.7643 28.3481V29.6121C28.7643 29.8873 28.7193 30.3943 28.9971 30.3943H29.0895V30.5081H28.9266C28.8811 30.5081 28.8323 30.5081 28.7886 30.4842H28.6039H28.4177C28.3719 30.5081 28.3258 30.5081 28.2798 30.5081H28.1164V30.3943ZM26.6792 27.5208C27.1208 27.5208 27.0493 27.6126 27.5365 27.6126C27.6062 27.6126 27.6521 27.6126 27.7238 27.5904C27.7238 27.7502 27.7011 28.0954 27.7011 28.2797V28.3481H27.5617C27.5617 27.6593 26.865 27.6815 26.5882 27.6815C26.031 27.6815 25.4746 28.187 25.4746 29.0602C25.4746 29.9122 26.1239 30.4172 26.7262 30.4172C27.2125 30.4172 27.5366 30.1862 27.7013 29.8871H27.8381C27.6525 30.2776 27.5368 30.5769 26.7262 30.5769C25.8454 30.5769 25.0806 29.9569 25.0806 29.0374C25.0802 28.2108 25.7297 27.5208 26.6792 27.5208ZM22.763 30.3943H22.8562C23.0655 30.3943 23.0877 29.9797 23.0877 29.6346V28.3479C23.0877 28.0952 23.1361 27.7056 22.8796 27.7056H22.763V27.5902C22.9969 27.5687 22.9969 27.6124 23.1803 27.6124C23.39 27.6124 23.4365 27.5687 23.8311 27.5687C24.4091 27.5687 24.5719 27.9807 24.5719 28.2327C24.5719 28.5553 24.2925 28.8307 23.8765 28.9002V28.9236H23.9682C24.1994 28.9236 24.8485 29.06 24.8485 29.7046C24.8485 30.1162 24.5478 30.5312 23.9458 30.5312C23.7601 30.5312 23.6677 30.5081 23.4819 30.4842C23.1805 30.4637 23.2046 30.5081 22.9261 30.5081H22.7632V30.3943H22.763ZM21.0253 27.5208C21.9063 27.5208 22.4398 28.3037 22.4398 29.0374C22.4398 29.9798 21.7683 30.5769 20.9341 30.5769C19.985 30.5769 19.4966 29.7254 19.4966 29.0163C19.4964 28.187 20.0769 27.5208 21.0253 27.5208ZM16.7176 30.3943H16.8099C17.1334 30.3943 17.2725 29.9571 17.5972 28.9932C17.9208 28.0954 17.991 27.8887 18.0608 27.5689L18.222 27.5208C18.6175 28.7851 18.7544 29.0602 19.0112 29.7506C19.1022 30.026 19.2421 30.3943 19.4731 30.3943H19.5437V30.5081H19.4288C19.3582 30.5081 19.2888 30.5081 19.221 30.4842H19.0112H18.8027C18.7544 30.5081 18.7083 30.5081 18.6384 30.5081H18.5008V30.3943H18.5715C18.8941 30.3943 18.8027 30.1416 18.5456 29.475C18.4782 29.245 18.1534 28.4165 18.1053 28.0499H18.084C18.0372 28.3243 17.9673 28.5553 17.8064 29.0161C17.5497 29.7943 17.4572 29.9797 17.4572 30.1862C17.4572 30.2776 17.4356 30.3943 17.6199 30.3943H17.7136V30.5081H17.5495C17.5046 30.5081 17.457 30.5081 17.3898 30.4842H17.201H17.0178C16.9486 30.5081 16.8785 30.5081 16.8327 30.5081H16.7178V30.3943H16.7176ZM14.3208 29.567C14.4616 29.199 14.8782 28.0274 14.9717 27.5208L15.2032 27.4984C15.4342 28.5319 15.6194 28.9932 15.7589 29.4281C16.0828 30.2776 16.0828 30.302 16.176 30.302C16.2915 30.302 16.4552 30.302 16.57 30.2776C16.5459 30.5083 16.4997 30.6907 16.3851 31.152H16.2215C16.2448 31.0829 16.2693 30.8995 16.2693 30.853C16.2693 30.5083 16.0362 30.5083 15.8987 30.5083H14.4155C14.2292 30.5083 14.0437 30.5083 13.929 30.6234C13.8348 30.7155 13.7192 30.9913 13.6718 31.152H13.535C13.6028 30.853 13.6502 30.5769 13.6718 30.2776C13.7194 30.302 13.8822 30.325 13.9523 30.325C14.0671 30.325 14.0903 30.2089 14.3208 29.567ZM11.8965 30.3943H11.9894C12.2222 30.3943 12.2222 29.9797 12.2222 29.6812V28.3948C12.2222 27.9352 12.246 27.6813 11.8963 27.7058V27.5904C12.082 27.6126 12.1753 27.6126 12.2912 27.6126C12.5444 27.6126 12.4539 27.5904 12.9171 27.5904C13.5647 27.5904 13.8416 27.9809 13.8416 28.4411C13.8416 28.9465 13.3796 29.267 12.9639 29.267C12.8935 29.267 12.8243 29.267 12.7539 29.2452V29.1305C12.8241 29.1532 12.8933 29.1532 12.9409 29.1532C13.243 29.1532 13.4956 28.8309 13.4956 28.4413C13.4956 27.981 13.1479 27.706 12.7083 27.706C12.6609 27.706 12.5933 27.729 12.5444 27.729V29.6577C12.5444 30.0024 12.5224 30.3945 12.7793 30.3945H12.9171V30.5083H12.7081C12.6607 30.5083 12.6157 30.5083 12.5442 30.4843H12.384H12.1968C12.1535 30.5083 12.1058 30.5083 12.0597 30.5083H11.8963V30.3943H11.8965ZM9.57948 30.3943H9.69497C9.90591 30.3943 9.9059 30.026 9.9059 29.7719V28.3481C9.9059 28.0954 9.92684 27.7058 9.67244 27.7058H9.57948V27.5904C9.92702 27.6126 10.1367 27.6126 10.4374 27.6126C10.8091 27.6126 11.0156 27.6126 11.3885 27.5904C11.3406 27.82 11.2947 28.0499 11.2251 28.3037H11.0871C11.1102 28.2108 11.1102 28.1195 11.1102 28.0727C11.1102 27.9352 11.0871 27.7979 10.7616 27.7979H10.2508C10.2508 28.0272 10.2302 28.2327 10.2302 28.441V28.9L10.5072 28.9234H10.786C10.9471 28.9 11.0637 28.8767 11.0871 28.5786H11.2019C11.1551 28.8538 11.1323 29.1529 11.1323 29.4514H11.0154C11.0408 29.2209 10.9929 29.0598 10.7859 29.0598H10.507L10.23 29.0852V29.7717C10.23 30.3249 10.3668 30.3941 10.6698 30.3941C11.0408 30.3941 11.2945 30.3247 11.4105 29.8639H11.5725C11.4332 30.4635 11.317 30.531 11.1779 30.531H10.6698C10.552 30.508 10.4373 30.508 10.3211 30.508C10.276 30.484 10.23 30.484 10.1834 30.484C9.92702 30.4635 9.85748 30.508 9.67244 30.508H9.57948V30.3943ZM10.6005 31.7157C10.5522 31.991 10.4841 32.2897 10.3904 32.6118L10.2048 32.635C10.2513 32.4727 10.2513 32.3577 10.2513 32.3126C10.2513 31.9446 9.95009 31.9681 9.7874 31.9681H9.13914C9.11395 32.702 9.09319 32.9103 9.09319 33.0939V33.3919C9.25534 33.3713 9.41874 33.3713 9.58036 33.3713C10.6228 33.3713 10.9466 33.8973 10.9466 34.4483C10.9466 35.092 10.3668 35.5063 9.69497 35.5063C9.39621 35.5063 9.21082 35.4374 9.00094 35.4374C8.88562 35.4374 8.65232 35.4585 8.49106 35.4585H8.26078V35.3232C8.70112 35.3671 8.6777 34.8606 8.6777 34.4481V32.8178C8.6777 32.3804 8.72223 31.8745 8.39845 31.8745H8.26096V31.7156C8.46729 31.7383 8.90869 31.7594 9.39639 31.7594C9.90503 31.7596 10.3668 31.7385 10.6005 31.7157ZM7.26302 30.3943H7.35634C7.56551 30.3943 7.58661 29.9797 7.58661 29.6346V28.3479C7.58661 28.0952 7.63293 27.7056 7.37887 27.7056H7.26302V27.5902C7.49596 27.5687 7.49596 27.6124 7.67993 27.6124C7.88804 27.6124 7.93576 27.5687 8.32837 27.5687C8.90868 27.5687 9.07101 27.9807 9.07101 28.2327C9.07101 28.5553 8.79213 28.8307 8.37592 28.9002V28.9236H8.46729C8.72241 28.9236 9.34902 29.06 9.34902 29.7046C9.34902 30.1162 9.07119 30.5312 8.44671 30.5312C8.28189 30.5312 8.16746 30.5081 7.98225 30.4842C7.68012 30.4637 7.70264 30.5081 7.42429 30.5081H7.2632V30.3943H7.26302ZM5.82689 27.5208C6.28993 27.5208 6.1982 27.6126 6.68271 27.6126C6.75279 27.6126 6.80105 27.6126 6.86935 27.5904C6.86935 27.7502 6.84593 28.0954 6.84593 28.2797V28.3481H6.70808C6.70808 27.6593 6.01246 27.6815 5.73268 27.6815C5.17863 27.6815 4.62226 28.187 4.62226 29.0602C4.62226 29.9122 5.27123 30.4172 5.8723 30.4172C6.35983 30.4172 6.68271 30.1862 6.84593 29.8871H6.98502C6.80104 30.2776 6.68271 30.5769 5.8723 30.5769C4.99234 30.5769 4.22753 29.9569 4.22753 29.0374C4.22753 28.2108 4.87685 27.5208 5.82689 27.5208ZM6.19803 31.6454C7.33292 31.6454 8.00389 32.635 8.00389 33.5758C8.00389 34.7953 7.14788 35.553 6.08111 35.553C4.85503 35.553 4.22753 34.4735 4.22753 33.5307C4.22753 32.4727 4.99217 31.6454 6.19803 31.6454ZM7.56657 37.4112V37.2471C7.56657 36.8952 7.23765 36.5452 6.76503 36.5452H6.48065V36.2409H6.88158C7.35438 36.2409 7.37709 36.3102 7.92334 36.3102C8.11033 36.3102 8.29786 36.3102 8.48769 36.2873C8.63015 36.2642 8.79461 36.2409 8.93619 36.2409H9.31495V36.5452H9.07687C8.6046 36.5452 8.25137 36.8267 8.25137 37.2471V37.4112C10.7538 37.5282 11.746 38.9102 11.746 40.3147C11.746 42.5395 9.52749 43.0763 8.25137 43.1253C8.25137 43.3589 8.27498 44.083 9.10171 44.083H9.31495V44.3889H8.96049C8.8402 44.3889 8.72489 44.366 8.58278 44.366C8.34754 44.3408 8.13323 44.3175 7.89674 44.3175C7.6606 44.3175 7.4493 44.341 7.21139 44.366C7.07177 44.366 6.9295 44.3889 6.78739 44.3889H6.48065V44.083H6.74037C7.30649 44.083 7.61483 43.6386 7.5664 43.1253C5.84374 43.1015 4.09748 42.0474 4.09748 40.1499C4.09783 38.4406 5.74811 37.3881 7.56657 37.4112ZM11.5942 47.4274C11.5942 48.5608 10.7901 49.2826 9.7984 49.2826C8.61543 49.2826 8.04487 48.2598 8.04487 47.3904C8.04487 46.3699 8.76871 45.5732 9.91337 45.5732C10.9801 45.5731 11.5942 46.5192 11.5942 47.4274ZM6.11057 50.4669C5.90264 50.4436 5.90263 50.6287 5.90263 50.8576V51.6618C5.90263 51.8701 5.90264 52.167 6.0419 52.167H6.11057V52.2365H6.01901C5.97164 52.2365 5.94894 52.2365 5.90263 52.2134H5.81074H5.71582C5.67147 52.2365 5.62517 52.2365 5.60193 52.2365H5.48536V52.167H5.55527C5.71583 52.167 5.69453 51.8909 5.69453 51.6618V50.5132H4.60452V51.7078C4.60452 51.8907 4.58305 52.1668 4.74379 52.1668H4.79063V52.2363H4.69749C4.65331 52.2363 4.62811 52.2363 4.58305 52.2132H4.48992H4.3966C4.35207 52.2363 4.32741 52.2363 4.28199 52.2363H4.18796V52.1668H4.23498C4.3966 52.1668 4.3966 51.8907 4.3966 51.7078V50.8574C4.3966 50.6285 4.37389 50.4435 4.18796 50.4667V50.3973C4.55857 50.4202 4.93025 50.4202 5.13782 50.4202C5.36987 50.4202 5.71582 50.4202 6.11038 50.3973V50.4669H6.11057ZM6.96728 51.4555C6.92328 51.4555 6.87485 51.4555 6.85303 51.4322V51.3654C6.87485 51.388 6.92328 51.388 6.94563 51.388C7.15427 51.388 7.31501 51.18 7.31501 50.9256C7.31501 50.6285 7.08437 50.4667 6.80654 50.4667C6.78313 50.4667 6.73664 50.4667 6.69069 50.4896V51.6849C6.69069 51.9138 6.6907 52.1668 6.85303 52.1668H6.94563V52.2363H6.80654C6.78313 52.2363 6.73664 52.2363 6.71287 52.2132H6.59845H6.48065C6.45811 52.2363 6.43576 52.2363 6.38875 52.2363H6.29577V52.1668H6.34474C6.50618 52.1668 6.50619 51.8907 6.50619 51.7078V50.902C6.50619 50.6038 6.50619 50.4435 6.2956 50.4667V50.3973C6.4111 50.3973 6.48046 50.4202 6.52801 50.4202C6.71269 50.4202 6.6435 50.3973 6.94563 50.3973C7.33878 50.3973 7.52293 50.6511 7.52293 50.9254C7.52311 51.247 7.22435 51.4555 6.96728 51.4555ZM7.35456 49.1684H7.1642H6.97295C6.89702 49.2066 6.82074 49.2066 6.74552 49.2066H6.55143V49.0554H6.66745C6.97296 49.0554 6.93712 48.5606 6.93712 48.1088V45.8772H4.83852V48.1853C4.83852 48.5248 4.80127 49.0554 5.10305 49.0554H5.2189V49.2066H5.02818C4.95225 49.2066 4.87579 49.2066 4.80127 49.1684H4.64746H4.417C4.34071 49.2066 4.30558 49.2066 4.2277 49.2066H4.03628V49.0554H4.15053C4.41718 49.0554 4.41717 48.5606 4.41717 48.1853V46.5579C4.41717 46.1422 4.41717 45.7653 4.03645 45.8027V45.6515C4.761 45.6892 5.48821 45.6892 5.86893 45.6892C6.28727 45.6892 7.01358 45.6892 7.73759 45.6515V45.8027C7.35492 45.7653 7.31554 46.1422 7.31554 46.5579V48.109C7.31554 48.4878 7.31554 49.0556 7.62317 49.0556H7.73759V49.2068H7.5467C7.46917 49.2066 7.39306 49.2066 7.35456 49.1684ZM8.63742 52.2587C8.54499 52.2587 8.42825 52.2363 8.33547 52.2363H8.10484C8.07947 52.2132 8.05853 52.2132 8.01116 52.2132C7.87278 52.2132 7.80377 52.2363 7.71099 52.2363H7.64091V52.1668H7.73405C7.84919 52.1668 7.84919 51.9136 7.84919 51.7771V50.8572C7.84919 50.7191 7.8726 50.4666 7.7108 50.4666H7.64073V50.3971C7.84919 50.42 7.98793 50.42 8.19656 50.42C8.40555 50.42 8.54482 50.42 8.77563 50.3971C8.75274 50.5356 8.72932 50.6727 8.68284 50.8324H8.59005C8.614 50.7883 8.614 50.7189 8.614 50.6962C8.614 50.6037 8.59005 50.5131 8.38266 50.5131H8.07965C8.05871 50.6729 8.05871 50.7883 8.05871 50.9254V51.2236H8.21927H8.40572C8.49851 51.2236 8.59005 51.2024 8.59005 51.0197H8.66119C8.63742 51.1799 8.61383 51.3652 8.63742 51.5693H8.54499C8.5677 51.4093 8.54499 51.3184 8.40572 51.3184H8.21927L8.05871 51.3393V51.7769C8.05871 52.1207 8.15079 52.1431 8.33565 52.1431C8.56788 52.1431 8.72968 52.1207 8.79958 51.8213H8.89184C8.82123 52.2134 8.75292 52.2587 8.63742 52.2587ZM10.6982 52.6271L10.6076 52.6506C10.6076 52.5788 10.6303 52.4906 10.6303 52.443C10.6303 52.2363 10.4914 52.2363 10.3995 52.2363H9.47054C9.33163 52.2363 9.21596 52.2363 9.14606 52.3057C9.09976 52.373 9.03038 52.5348 9.0091 52.6506L8.89184 52.6271C8.96244 52.443 8.98603 52.2824 8.98603 52.0745C9.03038 52.0992 9.12282 52.0992 9.17019 52.0992C9.23973 52.0992 9.23974 52.0294 9.40153 51.6386C9.49325 51.4095 9.74837 50.6512 9.81827 50.3511L9.95948 50.3302C10.0954 50.995 10.2125 51.2724 10.3051 51.5487C10.5146 52.0992 10.5146 52.0992 10.5822 52.0992C10.6528 52.0992 10.7438 52.0992 10.8158 52.0745C10.7919 52.2365 10.7687 52.3496 10.6982 52.6271ZM12.8541 50.4669C12.6458 50.4436 12.6222 50.6287 12.6222 50.8576V51.6618C12.6222 51.8701 12.6222 52.167 12.7844 52.167H12.8311V52.2365H12.7386C12.7159 52.2365 12.67 52.2365 12.646 52.2134H12.5524H12.4369C12.3916 52.2365 12.368 52.2365 12.3212 52.2365H12.2272V52.167H12.2763C12.4369 52.167 12.4127 51.8909 12.4127 51.6618V50.5132H11.3247V51.7078C11.3247 51.8907 11.3011 52.1668 11.4636 52.1668H11.5337V52.2363H11.438C11.3937 52.2363 11.3483 52.2363 11.3247 52.2132H11.2328H11.1166C11.0935 52.2363 11.0484 52.2363 11.0232 52.2363H10.909V52.1668H10.9782C11.1166 52.1668 11.1166 51.8907 11.1166 51.7078V50.8574C11.1166 50.6285 11.1166 50.4435 10.909 50.4667V50.3973C11.3011 50.4202 11.6719 50.4202 11.8801 50.4202C12.0904 50.4202 12.4606 50.4202 12.8545 50.3973V50.4669H12.8541ZM13.6883 51.4555C13.6402 51.4555 13.5969 51.4555 13.5707 51.4322V51.3654C13.6188 51.388 13.6402 51.388 13.6883 51.388C13.8749 51.388 14.0351 51.18 14.0351 50.9256C14.0351 50.6285 13.8045 50.4667 13.526 50.4667C13.5024 50.4667 13.4557 50.4667 13.4325 50.4896V51.6849C13.4325 51.9138 13.4094 52.1668 13.5707 52.1668H13.6663V52.2363H13.526C13.5024 52.2363 13.4791 52.2363 13.4325 52.2132H13.3411H13.2251C13.1763 52.2363 13.1563 52.2363 13.1323 52.2363H13.0165V52.1668H13.0849C13.2253 52.1668 13.2253 51.8907 13.2253 51.7078V50.902C13.2253 50.6038 13.2469 50.4435 13.0165 50.4667V50.3973C13.1323 50.3973 13.201 50.4202 13.2709 50.4202C13.4327 50.4202 13.3881 50.3973 13.6665 50.3973C14.082 50.3973 14.2438 50.6511 14.2438 50.9254C14.2436 51.247 13.9652 51.4555 13.6883 51.4555ZM12.4961 49.2066C12.2651 49.2066 12.038 49.2066 11.8842 49.3585C11.7692 49.4727 11.6546 49.7735 11.6169 50.001L11.4284 49.9619C11.5023 49.6225 11.5416 49.2826 11.5807 48.9042C11.6545 48.9411 11.8461 48.98 11.9231 48.98C12.0756 48.98 12.0756 48.8274 12.379 48.0711C12.5337 47.6179 13.0274 46.1808 13.1797 45.5729H13.4495C13.7149 46.8253 13.9436 47.3525 14.135 47.8815C14.478 48.9412 14.478 48.9412 14.6323 48.9412C14.7457 48.9412 14.9738 48.9412 15.0879 48.9044C15.0499 49.2068 15.0109 49.4324 14.8608 49.9621L14.6683 50.0012C14.709 49.8889 14.7457 49.6605 14.7457 49.6228C14.7457 49.207 14.478 49.207 14.2862 49.207H12.4961V49.2066ZM16.3291 52.2365H16.234C16.1442 52.2365 16.1204 52.2134 16.0273 52.2134C16.0035 52.2134 15.9601 52.2134 15.9127 52.2365H15.8197H15.7276V52.167H15.7956C15.9341 52.167 15.9341 51.9376 15.9341 51.7314V51.1563C15.9341 50.9737 15.9341 50.8574 15.96 50.6731C15.7275 51.0405 15.1236 51.7314 14.6398 52.2587L14.5234 52.2824V51.8216V50.8327C14.5234 50.6514 14.5466 50.4669 14.3834 50.4669H14.3366V50.3975H14.4066H14.5234C14.5683 50.4204 14.5917 50.4204 14.6398 50.4204C14.6605 50.4204 14.7077 50.4204 14.7302 50.3975H14.8468H14.9421V50.4669H14.8702C14.7302 50.4669 14.7302 50.6514 14.7302 50.8327V51.5249C14.7302 51.6387 14.7077 51.8909 14.7077 52.0053H14.7302C15.6111 50.881 14.9864 51.7991 16.0516 50.3763L16.1442 50.3513V50.7194V51.7524C16.1442 51.9378 16.0984 52.1672 16.2828 52.1672H16.3291V52.2365ZM18.4378 50.4669H18.392C18.229 50.4669 18.2542 50.6514 18.2542 50.881V51.7316C18.2542 51.8909 18.229 52.1672 18.392 52.1672H18.4378V52.2366H18.3443C18.3221 52.2366 18.2754 52.2366 18.2542 52.2135H18.1363H18.0212C17.9981 52.2366 17.9747 52.2366 17.9284 52.2366H17.8344V52.1672H17.8816C18.0437 52.1672 18.0437 51.9378 18.0437 51.7316V51.3187C17.8816 51.3397 17.6275 51.3397 17.4657 51.3397C17.2796 51.3397 17.0243 51.3397 16.8847 51.3187V51.7316C16.8847 51.9378 16.8847 52.1672 17.0243 52.1672H17.0706V52.2366H16.98C16.955 52.2366 16.9076 52.2366 16.8847 52.2135H16.7694H16.6771C16.63 52.2366 16.6067 52.2366 16.5611 52.2366H16.4696V52.1672H16.5164C16.6771 52.1672 16.6771 51.8911 16.6771 51.7316V50.881C16.6771 50.6514 16.6771 50.4669 16.5393 50.4669H16.4696V50.3975H16.5611H16.6771C16.702 50.3975 16.7476 50.4204 16.7694 50.4204C16.8171 50.4204 16.84 50.3975 16.8847 50.3975H17.0002H17.0953V50.4669H17.0243C16.8847 50.4669 16.8847 50.6514 16.8847 50.881V51.2028C17.0002 51.2239 17.2101 51.2472 17.4657 51.2472C17.6976 51.2472 17.905 51.2239 18.0437 51.2028V50.881C18.0437 50.6514 18.0437 50.4669 17.8816 50.4669H17.8344V50.3975H17.9284H18.0436C18.0682 50.3975 18.1129 50.4204 18.1363 50.4204C18.1839 50.4204 18.2055 50.3975 18.2542 50.3975H18.3443H18.4378V50.4669ZM18.1963 49.2066H16.4023C16.1735 49.2066 15.945 49.2066 15.8313 49.3585C15.7149 49.4727 15.5623 49.7735 15.5242 50.001L15.3333 49.9619C15.4486 49.6225 15.4873 49.2826 15.4873 48.9042C15.5625 48.9411 15.7543 48.98 15.8313 48.98C15.9838 48.98 16.0197 48.8274 16.2868 48.0711C16.4394 47.6179 16.9752 46.1808 17.0882 45.5729H17.3573C17.6238 46.8253 17.8509 47.3525 18.0413 47.8815C18.4234 48.9412 18.4234 48.9412 18.5385 48.9412C18.692 48.9412 18.8824 48.9412 18.995 48.9044C18.995 49.2068 18.9196 49.4324 18.8047 49.9621L18.6141 50.0012C18.6141 49.8889 18.653 49.6605 18.653 49.6228C18.6528 49.2066 18.3861 49.2066 18.1963 49.2066ZM20.6384 52.2365H20.5458C20.4319 52.2365 20.4319 52.2134 20.3378 52.2134C20.2931 52.2134 20.2443 52.2134 20.2232 52.2365H20.1285H20.0366V52.167H20.0838C20.2232 52.167 20.2232 51.9376 20.2232 51.7314V51.1563C20.2232 50.9737 20.2232 50.8574 20.2681 50.6731H20.2443C20.0137 51.0405 19.4336 51.7314 18.9237 52.2587L18.8089 52.2824C18.8336 52.0992 18.8336 51.9822 18.8336 51.8216V50.8327C18.8336 50.6514 18.8538 50.4669 18.694 50.4669H18.6232V50.3975H18.7167H18.8336C18.8538 50.4204 18.9006 50.4204 18.9239 50.4204C18.9707 50.4204 18.9959 50.4204 19.0395 50.3975H19.1559H19.2264V50.4669H19.1792C19.0168 50.4669 19.0394 50.6514 19.0394 50.8327V51.5249C19.0394 51.6387 19.0168 51.8909 19.0168 52.0053C19.8972 50.881 19.2709 51.7991 20.3623 50.3763L20.4548 50.3513C20.4319 50.604 20.4319 50.6733 20.4319 50.7194V51.7524C20.4319 51.9378 20.4077 52.1672 20.5917 52.1672H20.6384V52.2365ZM20.2985 49.1684H20.104C19.8006 49.1684 19.7235 49.2066 19.4964 49.2066H19.3818V49.0554H19.5336C19.8005 49.0554 19.8005 48.5997 19.8005 48.2974V46.5574C19.8005 46.2933 19.8005 45.8025 19.4962 45.8025H19.3816V45.6513C19.8003 45.689 20.0653 45.689 20.4464 45.689C20.8665 45.689 21.1362 45.689 21.5547 45.6513C21.5167 45.9148 21.4775 46.2171 21.3618 46.5193H21.2104C21.2506 46.405 21.2506 46.2934 21.2506 46.2578C21.2506 46.1054 21.2103 45.9149 20.8294 45.9149H20.2172C20.1819 46.1812 20.1819 46.4462 20.1819 46.71V47.2765H20.4858H20.8296C21.02 47.2765 21.1734 47.1997 21.2105 46.8612H21.362C21.2863 47.1999 21.2508 47.5419 21.2863 47.9206H21.1362C21.1733 47.6186 21.0966 47.4277 20.8294 47.4277H20.5255L20.1817 47.4677V48.2979C20.1817 48.9805 20.3336 49.056 20.7161 49.056C21.1731 49.056 21.4775 48.9805 21.6315 48.4114H21.7839C21.6315 49.1691 21.5166 49.2442 21.3253 49.2442C21.0964 49.2442 20.9054 49.2442 20.7159 49.2073C20.5631 49.2066 20.4132 49.2066 20.2985 49.1684ZM23.0946 52.2365H23.0017C22.957 52.2365 22.9334 52.2365 22.9094 52.2134H22.7948H22.6779C22.6309 52.2365 22.6078 52.2365 22.5858 52.2365H22.4691V52.167H22.539C22.6543 52.167 22.6543 52.0051 22.6543 51.9376C22.6543 51.3186 22.5858 51.0875 22.6309 50.7656H22.6078C22.3536 51.4095 22.2397 51.5249 21.9599 52.167H21.89C21.472 51.3187 21.3782 51.1342 21.2403 50.7656H21.2185C21.2185 51.7524 21.172 51.247 21.172 51.9376C21.172 52.0051 21.172 52.167 21.3118 52.167H21.3562V52.2365H21.2652C21.2401 52.2365 21.1946 52.2365 21.172 52.2134H21.056H20.9393C20.9183 52.2365 20.8706 52.2365 20.8483 52.2365H20.7549V52.167H20.8025C21.0329 52.167 21.0562 51.6618 21.0798 51.3397C21.1252 50.8327 21.1252 50.6965 21.1499 50.3975L21.2653 50.3511C21.7044 51.4095 21.8669 51.5695 21.9599 51.9138H21.9835C22.0529 51.5936 22.1212 51.7078 22.6779 50.376L22.7701 50.351C22.795 50.5358 22.795 50.6511 22.8168 51.0197C22.8413 51.432 22.8413 51.3878 22.8413 51.5693C22.8654 51.752 22.8654 52.1668 23.0272 52.1668H23.095V52.2365H23.0946ZM24.926 52.2365H24.8088C24.7882 52.2365 24.7612 52.2365 24.717 52.2134H24.6012H24.4632C24.4162 52.2365 24.3695 52.2365 24.3464 52.2365H24.2778V52.167H24.3464C24.5082 52.167 24.3929 51.8216 24.3021 51.5936C24.2322 51.5936 24.1848 51.6176 24.1156 51.6176C23.9526 51.6176 23.8128 51.6176 23.6748 51.5936C23.6515 51.7078 23.5586 51.8909 23.5586 52.0051C23.5586 52.0747 23.536 52.167 23.6515 52.167H23.7432V52.2365H23.6515C23.6283 52.2365 23.582 52.2365 23.5586 52.2134H23.4438H23.326C23.3033 52.2365 23.2582 52.2365 23.2339 52.2365H23.1427V52.167H23.1871C23.4436 52.167 23.8364 50.8327 23.9742 50.3511L24.067 50.3302C24.5318 51.9376 24.7172 52.167 24.8556 52.167H24.926V52.2365ZM26.2472 50.8121H26.1537C26.2236 50.4435 25.968 50.4896 25.8053 50.4896H25.5977V51.7522C25.5977 51.8907 25.5977 52.167 25.7593 52.167H25.8299V52.2365H25.7357H25.6206C25.5752 52.2134 25.5525 52.2134 25.503 52.2134C25.4815 52.2134 25.4347 52.2134 25.3882 52.2365H25.2972H25.2026V52.167H25.2498C25.3882 52.167 25.3882 51.9376 25.3882 51.7522V50.4896H25.2275C25.0195 50.4896 24.8318 50.4896 24.7882 50.8121H24.6958C24.7612 50.4667 24.7612 50.4667 24.7882 50.3511C25.0861 50.3975 25.3657 50.3975 25.503 50.3975C25.9438 50.3975 26.1537 50.3762 26.2926 50.3511C26.2926 50.4204 26.2926 50.536 26.2472 50.8121ZM27.4522 52.2587C27.3344 52.2587 27.2428 52.2363 27.1268 52.2363H26.9191C26.871 52.2132 26.8493 52.2132 26.8258 52.2132C26.6627 52.2132 26.6162 52.2363 26.5002 52.2363H26.4319V52.1668H26.5233C26.6398 52.1668 26.6398 51.9136 26.6398 51.7771V50.8572C26.6398 50.7191 26.6627 50.4666 26.5002 50.4666H26.4319V50.3971C26.6627 50.42 26.7793 50.42 26.987 50.42C27.2191 50.42 27.358 50.42 27.5657 50.3971C27.5657 50.5356 27.5219 50.6727 27.4745 50.8324H27.3802C27.4055 50.7883 27.4055 50.7189 27.4055 50.6962C27.4055 50.6037 27.4055 50.5131 27.1946 50.5131H26.8712C26.8497 50.6729 26.8497 50.7883 26.8497 50.9254V51.2236H27.0127H27.1946C27.2893 51.2236 27.3803 51.2024 27.3803 51.0197H27.4524C27.4298 51.1799 27.4298 51.3652 27.4298 51.5693H27.3346C27.3582 51.4093 27.3346 51.3184 27.1946 51.3184H27.0333L26.8495 51.3393V51.7769C26.8495 52.1207 26.94 52.1431 27.1268 52.1431C27.358 52.1431 27.5219 52.1207 27.59 51.8213H27.6821C27.6138 52.2134 27.5436 52.2587 27.4522 52.2587ZM29.513 52.2365H29.4452C29.3961 52.2365 29.3521 52.2365 29.3058 52.2134H29.1654H29.0494C29.0036 52.2365 28.9804 52.2365 28.9337 52.2365H28.864V52.167H28.8885C29.0957 52.167 29.0494 52.0051 28.8885 51.5936C28.842 51.4322 28.6323 50.902 28.5873 50.6731C28.5617 50.8574 28.5163 50.995 28.4249 51.2941C28.2628 51.7771 28.1934 51.8907 28.1934 52.0294C28.1934 52.0745 28.1934 52.1668 28.2855 52.1668H28.3547V52.2363H28.2628C28.2154 52.2363 28.1934 52.2363 28.1453 52.2132H28.0309H27.9142C27.8682 52.2363 27.845 52.2363 27.7978 52.2363H27.7307V52.1668H27.7978C27.9834 52.1668 28.0772 51.8907 28.2855 51.2722C28.4945 50.7191 28.5163 50.5802 28.5873 50.376L28.679 50.351C28.9339 51.1561 29.0038 51.3184 29.1656 51.752C29.2339 51.9136 29.3274 52.1668 29.467 52.1668H29.5132V52.2365H29.513ZM30.3944 52.2587C30.323 52.2587 30.2327 52.2363 30.1616 52.2363C30.1398 52.2132 30.0912 52.2132 30.0468 52.2132C29.9294 52.2132 29.9063 52.2363 29.7921 52.2363H29.676V52.1668H29.7206C29.8605 52.1668 29.8834 51.9136 29.8834 51.7078V50.9256C29.8834 50.6963 29.9063 50.4667 29.7447 50.4667H29.676V50.3973H29.7921H29.8834C29.9294 50.3973 29.9759 50.4202 29.9989 50.4202C30.022 50.4202 30.069 50.3973 30.0912 50.3973H30.2079H30.3007V50.4667H30.2546C30.091 50.4667 30.091 50.6512 30.091 50.8574V51.2238C30.1614 51.2238 30.2546 51.2026 30.3229 51.2026C30.6717 51.2026 30.9961 51.3395 30.9961 51.6616C30.9963 51.9586 30.7877 52.2587 30.3944 52.2587ZM30.87 49.1686H30.6401C30.5624 49.2066 30.5264 49.2066 30.4492 49.2066H30.2592V49.0554H30.3724C30.6768 49.0554 30.6403 48.4489 30.6403 48.1088V46.5958C30.6403 46.2931 30.6768 45.8025 30.3724 45.8025H30.2592V45.6513H30.4103C30.4852 45.6513 30.5625 45.689 30.6403 45.689H30.8308H31.0229C31.0992 45.689 31.1753 45.6513 31.2511 45.6513H31.4416V45.8025H31.3267C31.0228 45.8025 31.0228 46.1808 31.0228 46.5958V48.1088C31.0228 48.4489 30.9866 49.0554 31.3267 49.0554H31.4414V49.2066H31.2509C31.1751 49.2066 31.1354 49.2066 31.0597 49.1686H30.87ZM32.3542 45.8025H32.2417V45.6513H32.4348C32.5093 45.6513 32.5854 45.689 32.6613 45.689H32.8914H33.0433C33.1189 45.689 33.1558 45.6513 33.2331 45.6513H33.35V45.8025H33.273C32.9663 45.8025 32.7761 46.0652 32.3934 46.4053L31.4785 47.2392C31.7445 47.3141 32.0893 47.6554 32.2416 47.8815C32.852 48.5997 33.0433 49.0554 33.2331 49.0554H33.5015V49.1686C33.3853 49.2068 33.2732 49.2436 33.1558 49.2436C32.5476 49.2436 32.2786 48.4108 31.1352 47.3527C32.2785 46.2578 32.4706 46.0654 32.4706 45.9539C32.4708 45.8772 32.4708 45.8025 32.3542 45.8025ZM32.2009 52.2824C31.6446 52.2824 31.1563 51.8907 31.1563 51.3186C31.1563 50.7885 31.5757 50.3511 32.1777 50.3511C32.4566 50.3511 32.4099 50.3975 32.7106 50.3975H32.8267C32.8267 50.4896 32.8034 50.7192 32.8034 50.8123V50.881H32.7325C32.7106 50.4438 32.2934 50.4438 32.1089 50.4438C31.7604 50.4438 31.4123 50.7658 31.4123 51.3189C31.4123 51.8453 31.8064 52.1672 32.2008 52.1672C32.5011 52.1672 32.7105 52.0298 32.8032 51.8453H32.8948C32.7802 52.0992 32.7106 52.2824 32.2009 52.2824ZM34.4938 50.8121H34.4033C34.4727 50.4435 34.2169 50.4896 34.0556 50.4896H33.8471V51.7522C33.8471 51.8907 33.8471 52.167 34.0091 52.167H34.0788V52.2365H33.9852H33.8693C33.8205 52.2134 33.7994 52.2134 33.7545 52.2134C33.7315 52.2134 33.6843 52.2134 33.6373 52.2365H33.5448H33.429V52.167H33.5008C33.6374 52.167 33.6374 51.9376 33.6374 51.7522V50.4896H33.4751C33.2446 50.4896 33.0813 50.4896 33.036 50.8121H32.9422C33.0124 50.4667 33.0124 50.4667 33.036 50.3511C33.3358 50.3975 33.6153 50.3975 33.7547 50.3975C34.1934 50.3975 34.3794 50.3762 34.5422 50.3511C34.5419 50.4204 34.5419 50.536 34.4938 50.8121ZM35.4209 52.2587C35.3274 52.2587 35.2586 52.2363 35.1428 52.2132C34.9357 52.1901 34.9583 52.2363 34.7966 52.2363H34.6797V52.1668H34.75C34.8871 52.1668 34.8871 51.8907 34.8871 51.6849V50.8808C34.8871 50.7192 34.9127 50.4667 34.75 50.4667H34.6797V50.3973C34.8426 50.376 34.8426 50.4202 34.9355 50.4202C35.073 50.4202 35.0984 50.376 35.3532 50.376C35.7218 50.376 35.8146 50.6285 35.8146 50.7885C35.8146 50.995 35.653 51.18 35.3981 51.2026V51.2238H35.4445C35.6076 51.2238 36.0013 51.3186 36.0013 51.7314C36.0013 51.9822 35.8146 52.2587 35.4209 52.2587ZM37.7617 52.2365H37.6694C37.6228 52.2365 37.5997 52.2365 37.5529 52.2134H37.4612H37.2971C37.274 52.2365 37.2289 52.2365 37.183 52.2365H37.1133V52.167H37.183C37.3455 52.167 37.2289 51.8216 37.1353 51.5936C37.0897 51.5936 37.0194 51.6176 36.9501 51.6176C36.7875 51.6176 36.65 51.6176 36.5322 51.5936C36.4858 51.7078 36.3937 51.8909 36.3937 52.0051C36.3937 52.0747 36.3937 52.167 36.5103 52.167H36.5816V52.2365H36.4858C36.4645 52.2365 36.4412 52.2365 36.3935 52.2134H36.2778H36.1618C36.1382 52.2365 36.1175 52.2365 36.0699 52.2365H35.9775V52.167H36.0476C36.278 52.167 36.6738 50.8327 36.8119 50.3511L36.9043 50.3302C37.39 51.9376 37.5527 52.167 37.6911 52.167H37.7615V52.2365H37.7617ZM37.852 49.2066H37.6622C37.4706 49.2066 37.4319 49.1684 37.2802 49.1684H37.0129C36.9751 49.2066 36.8995 49.2066 36.8606 49.2066H36.6692V49.0554H36.7845C37.0496 49.0554 37.0496 48.6406 37.0496 48.2598V47.1276C37.0496 46.7861 37.0496 46.5574 37.1276 46.217H37.0891C36.669 46.9368 35.5256 48.2598 34.5715 49.2434L34.3428 49.2826C34.3804 48.9411 34.3804 48.7137 34.3804 48.4108V46.5193C34.3804 46.181 34.4166 45.8027 34.1122 45.8027H33.9979V45.6515H34.1525C34.2275 45.6515 34.3036 45.6892 34.3802 45.6892H34.5713H34.7626C34.8378 45.6892 34.9141 45.6515 34.9895 45.6515H35.1424V45.8027H35.029C34.7624 45.8027 34.7624 46.181 34.7624 46.5193V47.8457C34.7624 48.0339 34.7218 48.5608 34.7218 48.7506H34.7624C36.4425 46.5958 35.2205 48.3349 37.3184 45.6125L37.47 45.5731V46.2933V48.2974C37.47 48.6404 37.393 49.0554 37.7365 49.0554H37.8515V49.2066H37.852ZM37.6182 44.9865H37.2351C37.4 44.342 36.8922 43.9445 36.0669 43.9445H32.1C31.1324 43.9445 30.5271 44.1269 30.2579 44.9865H29.8978C30.1082 44.2871 30.0236 44.0883 30.0929 43.3589C30.2367 43.3824 30.6841 43.4511 30.8251 43.4511C31.1799 43.4511 31.2035 43.1706 31.8404 41.6021C32.1956 40.6877 33.305 37.7379 33.5867 36.5222L34.2034 36.4973C34.816 39.0507 35.3118 40.1499 35.7128 41.2523C36.5388 43.3822 36.5388 43.4289 36.8237 43.4289C37.131 43.4289 37.5791 43.4037 37.8632 43.3589C37.8149 43.9086 37.9049 43.9211 37.6182 44.9865ZM36.812 50.6731C36.7437 50.9508 36.6953 51.0641 36.5578 51.5016H36.9286H37.09C36.9965 51.1563 36.9044 50.9737 36.8353 50.6731H36.812ZM34.0721 37.6691H33.9552C33.8819 38.4887 32.4892 42.1156 31.971 43.4752C32.6548 43.4978 33.0571 43.5225 33.8354 43.5225C34.7808 43.5225 35.2057 43.5225 35.9372 43.4752C35.3713 42.1873 34.7808 40.5941 34.4998 39.6126C34.1681 38.4887 34.0721 38.0649 34.0721 37.6691ZM30.2547 51.2942H30.0912V51.8451C30.0912 52.0051 30.069 52.167 30.3468 52.167C30.6014 52.167 30.7634 52.0051 30.7634 51.7314C30.7634 51.3187 30.3702 51.2942 30.2547 51.2942Z" fill="white"/>
</svg>
