<svg width="89" height="38" viewBox="0 0 89 38" fill="none" xmlns="http://www.w3.org/2000/svg">
<path opacity="0.5" fill-rule="evenodd" clip-rule="evenodd" d="M68.5176 30.8822C74.263 28.7028 79.373 25.912 83.5961 22.2666V30.8822H68.5176Z" fill="white"/>
<path fill-rule="evenodd" clip-rule="evenodd" d="M2.10497 30.2164C5.0849 28.4933 15.2545 25.3901 20.3389 24.3581L22.0908 24.0116C24.1958 23.6672 25.7734 23.4947 27.0018 23.3226C27.3512 23.3226 28.0526 23.1501 28.0526 22.6332C28.0526 22.1163 27.527 21.5994 27.0018 21.5994C25.7734 21.5994 24.0203 22.2888 22.0908 22.6332L21.9171 22.6685V5.40096C21.9171 4.88371 21.7412 4.5393 21.216 4.5393C20.5132 4.5393 20.1634 4.88371 20.1634 5.40096V22.6334C20.1634 22.7718 20.1787 22.8952 20.204 23.0049C15.7597 23.8985 6.09689 26.7891 2.10497 28.6659L1.92913 28.6994V23.8393V23.6672V14.3624C1.92913 13.8455 1.75329 13.1565 1.22806 13.1565C0.351508 13.1565 0.175488 13.8455 0.175488 14.3624V28.8382C0.175488 28.9515 0.192505 29.0561 0.226362 29.1505C0.00159534 29.448 0 29.747 0 30.0445C0 30.3889 0 30.7335 0.351331 30.9058L2.10497 30.2164ZM54.3531 13.6734C54.3531 12.1223 53.3006 11.261 51.5471 11.261C48.2155 11.261 42.7814 12.8117 38.7473 14.5349C34.5391 16.0855 31.0339 17.981 31.0339 17.981V13.6734C33.1368 12.2948 42.4299 8.33161 44.0078 8.15932C44.183 7.9872 48.3913 6.95146 48.2153 6.26422C48.3911 5.57326 45.761 6.4367 45.761 6.4367C42.9553 6.95146 33.6625 10.9166 31.2078 12.1225C31.0338 11.6056 30.6823 11.4331 30.3325 11.4331C29.6297 11.4331 29.456 11.9504 29.456 12.4669V18.8425C28.9286 19.1872 28.7549 19.5318 28.7549 20.0487C28.7549 20.3935 28.9286 20.7381 29.456 20.9104V25.218C29.456 25.3905 29.456 25.5624 29.9812 25.909C29.2801 26.4259 29.2801 26.7703 29.2801 27.1152C29.2801 27.4597 29.6299 27.6321 30.3327 27.6321C34.7149 27.632 54.3531 20.9102 54.3531 13.6734ZM31.0341 25.909V20.221C35.9434 16.258 46.2869 12.6394 51.5473 12.6394C52.0725 12.6394 52.5998 12.9842 52.5998 13.6735C52.5997 18.6704 38.0462 25.3903 31.0341 25.909ZM81.453 32.8636C81.3041 32.8975 81.1757 32.9498 81.0711 33.0225C80.9527 33.107 80.8531 33.2132 80.7751 33.3435C80.6975 33.475 80.6606 33.629 80.6606 33.8047C80.6606 34.0681 80.7177 34.2828 80.8361 34.4466C80.9527 34.6107 81.1165 34.7353 81.3228 34.825L80.297 36.2507H81.3464L82.2095 34.9888H82.6911V36.2507H83.5712V32.8115H81.9682C81.7757 32.8113 81.6033 32.8284 81.453 32.8636ZM82.6911 33.4433V34.3707H82.2584C82.1303 34.3707 82.0259 34.3638 81.9461 34.3537C81.8669 34.3436 81.799 34.3149 81.7401 34.2691C81.6875 34.2285 81.6471 34.1777 81.6185 34.1137C81.588 34.0527 81.5742 33.9818 81.5742 33.9025C81.5742 33.8281 81.588 33.7588 81.6167 33.6966C81.6437 33.6338 81.6843 33.5833 81.7348 33.5447C81.8023 33.4956 81.8736 33.4651 81.9459 33.4567C82.0168 33.4481 82.12 33.4433 82.2536 33.4433H82.6911ZM77.5674 34.884V32.8113H76.7057V36.2505H77.5488L78.9727 33.9618V36.2505H79.8344V32.8113H78.8917L77.5674 34.884ZM74.9455 34.0699H73.64V32.8113H72.7544V36.2505H73.64V34.7351H74.9455V36.2505H75.8304V32.8113H74.9455V34.0699ZM69.9774 32.8113L68.709 36.2505H69.6008L69.8386 35.5546H71.111L71.3475 36.2505H72.2632L70.9965 32.8113H69.9774ZM70.0515 34.9246L70.4739 33.6914L70.8964 34.9246H70.0515ZM67.7021 34.3656V34.3469C67.8624 34.276 67.9873 34.178 68.0737 34.0499C68.1616 33.9228 68.2052 33.776 68.2052 33.6104C68.2052 33.4667 68.1733 33.3401 68.1089 33.2268C68.0449 33.1153 67.9487 33.0274 67.8184 32.9617C67.6917 32.8977 67.5649 32.8571 67.4369 32.8385C67.3081 32.8198 67.1074 32.8115 66.8304 32.8115H65.4991V36.2507H66.9957C67.2439 36.2507 67.4499 36.2307 67.6121 36.1867C67.7744 36.1428 67.923 36.0701 68.0584 35.9687C68.1751 35.8829 68.2662 35.7744 68.3341 35.6429C68.3995 35.5128 68.4335 35.3639 68.4335 35.1966C68.4335 34.9688 68.3677 34.7828 68.2376 34.6426C68.1057 34.5022 67.9283 34.4113 67.7021 34.3656ZM66.3789 33.4415H66.4602C66.6343 33.4415 66.7694 33.4433 66.8656 33.4447C66.9605 33.4482 67.0411 33.4603 67.1072 33.4855C67.1778 33.5124 67.2288 33.556 67.2576 33.6122C67.2863 33.6696 67.2997 33.7271 67.2997 33.7829C67.2997 33.857 67.288 33.9228 67.2627 33.9786C67.2388 34.0343 67.1865 34.08 67.1072 34.1156C67.0498 34.1426 66.9718 34.1578 66.874 34.1628C66.7759 34.1663 66.6561 34.1697 66.5159 34.1697H66.3789V33.4415ZM67.4635 35.4045C67.43 35.4685 67.3673 35.519 67.2746 35.5582C67.1831 35.597 67.0853 35.6174 66.9771 35.6191C66.8692 35.6191 66.6919 35.6206 66.4432 35.6206H66.3789V34.7626H66.5717C66.7033 34.7626 66.8304 34.7644 66.952 34.7658C67.0736 34.7676 67.1684 34.7775 67.2372 34.7981C67.3386 34.8268 67.4112 34.8708 67.4518 34.9314C67.4958 34.9906 67.5162 35.0751 67.5162 35.1831C67.5162 35.2678 67.499 35.3401 67.4635 35.4045ZM63.0529 32.7387C62.5022 32.7387 62.07 32.8993 61.7557 33.222C61.443 33.5431 61.286 33.9786 61.286 34.5311C61.286 35.0803 61.4432 35.5158 61.7557 35.8384C62.07 36.1614 62.5022 36.3234 63.0529 36.3234C63.6072 36.3234 64.0396 36.1614 64.3522 35.8384C64.6662 35.5158 64.8234 35.0803 64.8234 34.5311C64.8234 33.9786 64.6662 33.5431 64.3505 33.222C64.0364 32.8993 63.6037 32.7387 63.0529 32.7387ZM63.8419 35.0326C63.7997 35.1746 63.7352 35.2978 63.6512 35.4027C63.5734 35.4954 63.484 35.563 63.3809 35.6069C63.2777 35.6509 63.1697 35.673 63.0565 35.673C62.9416 35.673 62.8335 35.6509 62.7303 35.6087C62.6275 35.5647 62.5378 35.499 62.4616 35.4079C62.3839 35.3164 62.3235 35.1997 62.276 35.0547C62.2288 34.911 62.2051 34.7369 62.2051 34.5309C62.2051 34.3315 62.229 34.156 62.2778 34.0036C62.3265 33.8517 62.3893 33.7336 62.4667 33.6473C62.5481 33.5546 62.6392 33.4887 62.7388 33.4479C62.8384 33.4073 62.943 33.389 63.0563 33.389C63.166 33.389 63.2727 33.4091 63.3755 33.4496C63.4769 33.4918 63.5663 33.5594 63.6459 33.6508C63.7221 33.7402 63.7843 33.8586 63.8315 34.0022C63.8809 34.1472 63.9041 34.3232 63.9041 34.5292C63.9041 34.7217 63.8823 34.889 63.8419 35.0326ZM60.5358 34.6221C60.4599 34.5581 60.377 34.5088 60.2859 34.4753C60.1948 34.4414 60.1068 34.4161 60.0237 34.4026V34.3673C60.2249 34.3198 60.3887 34.2253 60.5156 34.0834C60.642 33.9414 60.7063 33.7724 60.7063 33.5782C60.7063 33.3164 60.5883 33.1118 60.3515 32.965C60.1168 32.8179 59.7637 32.7438 59.2941 32.7438C59.0475 32.7438 58.8107 32.7674 58.5844 32.8144C58.358 32.8619 58.1655 32.914 58.01 32.9698V33.693H58.0946C58.1603 33.6625 58.2231 33.632 58.2839 33.6019C58.3449 33.5714 58.4241 33.5392 58.5236 33.5035C58.6166 33.473 58.7129 33.4461 58.8144 33.4225C58.9158 33.4007 59.0256 33.389 59.144 33.389C59.3413 33.389 59.4985 33.4144 59.6134 33.4667C59.7266 33.519 59.7841 33.6033 59.7841 33.7184C59.7841 33.7859 59.7757 33.8416 59.7571 33.8873C59.7397 33.933 59.7062 33.9719 59.6609 34.0089C59.6169 34.0428 59.5541 34.0663 59.4701 34.0851C59.387 34.1037 59.2891 34.1121 59.1741 34.1121H58.5645V34.7252H59.1963C59.3111 34.7252 59.4127 34.7321 59.4967 34.7453C59.5829 34.7557 59.6539 34.7791 59.7096 34.8114C59.767 34.847 59.8092 34.8924 59.8363 34.948C59.8635 35.0037 59.8769 35.0765 59.8769 35.1645C59.8769 35.259 59.8583 35.3348 59.8213 35.3958C59.7842 35.455 59.7286 35.5059 59.6523 35.5513C59.5848 35.5919 59.5004 35.6239 59.4024 35.6427C59.3028 35.6628 59.1913 35.6732 59.0697 35.6732C58.9444 35.6732 58.8364 35.6612 58.7418 35.6376C58.6471 35.614 58.5441 35.5801 58.4344 35.5396C58.3468 35.5073 58.2585 35.4687 58.1726 35.4229C58.0864 35.3775 58.0207 35.3419 57.9783 35.3166H57.8952V36.0938C58.0728 36.1614 58.2687 36.217 58.4817 36.2559C58.6943 36.2981 58.9242 36.3183 59.1707 36.3183C59.4533 36.3183 59.6912 36.2929 59.8856 36.2424C60.0813 36.1933 60.2488 36.1192 60.3905 36.0226C60.5259 35.9299 60.6273 35.8148 60.6962 35.6782C60.7641 35.5415 60.798 35.3894 60.798 35.2253C60.798 35.0767 60.7741 34.9569 60.7235 34.8621C60.6744 34.7674 60.612 34.6864 60.5358 34.6221ZM55.3752 32.8113L54.1067 36.2505H54.9985L55.2364 35.5546H56.5084L56.7453 36.2505H57.661L56.3936 32.8113H55.3752ZM55.4511 34.9246L55.8717 33.6914L56.2941 34.9246H55.4511ZM53.4374 33.0377C53.3225 32.9615 53.1892 32.904 53.0407 32.867C52.89 32.8299 52.7059 32.8113 52.4882 32.8113H51.0316V36.2505H51.9172V35.1306H52.4676C52.7179 35.1306 52.9274 35.0953 53.0946 35.026C53.2632 34.9567 53.4156 34.8536 53.5523 34.7199C53.6519 34.6189 53.7281 34.4955 53.784 34.3484C53.8362 34.2016 53.8628 34.0509 53.8628 33.8972C53.8628 33.6982 53.8276 33.5275 53.7531 33.3855C53.681 33.2439 53.5764 33.127 53.4374 33.0377ZM52.9106 34.1677C52.8852 34.237 52.8445 34.2945 52.787 34.3453C52.7213 34.4007 52.6403 34.4365 52.5422 34.4565C52.4442 34.4735 52.3207 34.4834 52.1703 34.4834H51.9172V33.4532H52.0691C52.2141 33.4532 52.3309 33.455 52.4185 33.4583C52.5068 33.4615 52.5961 33.4837 52.6888 33.519C52.7585 33.5477 52.8173 33.5968 52.8716 33.6661C52.9221 33.737 52.9492 33.8198 52.9492 33.9178C52.9492 34.0158 52.9358 34.1004 52.9106 34.1677ZM50.0436 34.3351C49.9269 34.2436 49.7919 34.1796 49.6399 34.1458C49.488 34.1105 49.292 34.0935 49.0522 34.0935H48.3358V33.4752H50.1216V32.8115H47.4557V36.2507H49.0387C49.2551 36.2507 49.4372 36.2307 49.5878 36.1867C49.7397 36.1461 49.8853 36.0683 50.0251 35.9551C50.1349 35.8657 50.2231 35.7509 50.287 35.6106C50.3513 35.4687 50.3818 35.315 50.3818 35.1478C50.3818 34.9807 50.3548 34.8268 50.3026 34.685C50.2478 34.5444 50.162 34.4278 50.0436 34.3351ZM49.434 35.3435C49.4118 35.3958 49.3799 35.4398 49.3374 35.4768C49.2968 35.5156 49.2379 35.5461 49.1605 35.5716C49.0826 35.597 48.9945 35.6087 48.8983 35.6087H48.3357V34.7321H48.8983C49.0268 34.7321 49.1261 34.7453 49.1975 34.7692C49.2702 34.7945 49.3276 34.8284 49.3682 34.8688C49.41 34.9128 49.4372 34.9581 49.4489 35.0108C49.4609 35.0613 49.4675 35.1157 49.4675 35.1728C49.4675 35.2356 49.4558 35.293 49.434 35.3435ZM45.0113 32.7387C44.4606 32.7387 44.0277 32.8993 43.7138 33.222C43.4011 33.5431 43.2444 33.9786 43.2444 34.5311C43.2444 35.0803 43.4013 35.5158 43.7138 35.8384C44.0277 36.1614 44.4606 36.3234 45.0113 36.3234C45.5635 36.3234 45.9976 36.1614 46.3099 35.8384C46.6242 35.5158 46.7814 35.0803 46.7814 34.5311C46.7814 33.9786 46.6226 33.5431 46.3085 33.222C45.9942 32.8993 45.5601 32.7387 45.0113 32.7387ZM45.8001 35.0326C45.7583 35.1746 45.6938 35.2978 45.6076 35.4027C45.5314 35.4954 45.4421 35.563 45.3392 35.6069C45.2361 35.6509 45.1281 35.673 45.0131 35.673C44.8998 35.673 44.7915 35.6509 44.6887 35.6087C44.5855 35.5647 44.4962 35.499 44.42 35.4079C44.3422 35.3164 44.2815 35.1997 44.234 35.0547C44.1865 34.911 44.1631 34.7369 44.1631 34.5309C44.1631 34.3315 44.1867 34.156 44.2358 34.0036C44.2849 33.8517 44.3473 33.7336 44.4235 33.6473C44.5059 33.5546 44.5976 33.4887 44.697 33.4479C44.7966 33.4073 44.9016 33.389 45.0131 33.389C45.1246 33.389 45.2309 33.4091 45.3323 33.4496C45.4351 33.4918 45.5248 33.5594 45.6044 33.6508C45.6803 33.7402 45.7425 33.8586 45.79 34.0022C45.8372 34.1472 45.8609 34.3232 45.8609 34.5292C45.8609 34.7217 45.8405 34.889 45.8001 35.0326ZM40.9956 35.0532H42.7541V34.3891H40.9956V35.0532ZM40.0298 32.8317C39.9314 32.806 39.8238 32.7842 39.7087 32.7674C39.5921 32.7521 39.4618 32.7438 39.3182 32.7438C39.0564 32.7438 38.8166 32.7844 38.5954 32.8688C38.3759 32.9515 38.1914 33.07 38.0411 33.2219C37.8856 33.3805 37.7693 33.5716 37.6865 33.7928C37.6052 34.014 37.5646 34.2622 37.5646 34.5345C37.5646 34.8266 37.6068 35.0852 37.6917 35.3079C37.7775 35.5312 37.8977 35.7184 38.0531 35.8673C38.2086 36.0176 38.3942 36.1291 38.6085 36.2052C38.8249 36.2793 39.06 36.3181 39.3147 36.3181C39.4872 36.3181 39.6221 36.3098 39.7201 36.2927C39.8201 36.2757 39.9246 36.2505 40.0361 36.2186C40.1223 36.1947 40.2051 36.1642 40.2827 36.1307C40.3603 36.0969 40.4433 36.0614 40.5293 36.0224V35.1997H40.4382C40.396 35.2371 40.3437 35.2808 40.2795 35.3316C40.2134 35.3821 40.1441 35.4297 40.0684 35.4754C39.9805 35.5294 39.8821 35.5748 39.7775 35.6069C39.6726 35.6392 39.5664 35.6544 39.4583 35.6544C39.3453 35.6544 39.2323 35.6358 39.1172 35.6004C39.0023 35.5647 38.8974 35.5041 38.8045 35.4195C38.7115 35.3364 38.6356 35.2219 38.5746 35.0764C38.5136 34.9326 38.4835 34.752 38.4835 34.5359C38.4835 34.3296 38.5104 34.1541 38.5681 34.0086C38.6237 33.8652 38.6966 33.7485 38.7875 33.6606C38.8838 33.5695 38.9869 33.5051 39.0984 33.4647C39.2117 33.4259 39.3301 33.4073 39.4529 33.4073C39.5662 33.4073 39.671 33.4243 39.769 33.4582C39.867 33.4917 39.9597 33.5323 40.0425 33.5814C40.1274 33.6319 40.1997 33.681 40.2655 33.7333C40.3316 33.7824 40.3857 33.8277 40.4279 33.8634H40.5289V33.0304C40.4665 32.9982 40.3942 32.9647 40.3095 32.929C40.2253 32.8941 40.1326 32.8603 40.0298 32.8317ZM34.5409 36.2505H37.0225V35.5851H35.421V34.7351H36.9077V34.0697H35.421V33.475H37.0225V32.8113H34.5409V36.2505ZM32.7824 34.0699H31.4751V32.8113H30.5913V36.2505H31.4751V34.7351H32.7824V36.2505H33.6656V32.8113H32.7824V34.0699ZM29.6385 34.6221C29.5644 34.5581 29.4797 34.5088 29.3886 34.4753C29.2975 34.4414 29.2113 34.4161 29.1286 34.4026V34.3673C29.3294 34.3198 29.4935 34.2253 29.6201 34.0834C29.7465 33.9414 29.8091 33.7724 29.8091 33.5782C29.8091 33.3164 29.6924 33.1118 29.4563 32.965C29.2195 32.8179 28.8685 32.7438 28.3968 32.7438C28.1517 32.7438 27.9156 32.7674 27.6892 32.8144C27.4628 32.8619 27.2703 32.914 27.1149 32.9698V33.693H27.1991C27.2652 33.6625 27.3279 33.632 27.3884 33.6019C27.4476 33.5714 27.5268 33.5392 27.6284 33.5035C27.7195 33.473 27.8177 33.4461 27.9175 33.4225C28.0186 33.4007 28.1301 33.389 28.2467 33.389C28.4461 33.389 28.6016 33.4144 28.7164 33.4667C28.8313 33.519 28.8886 33.6033 28.8886 33.7184C28.8886 33.7859 28.8802 33.8416 28.8616 33.8873C28.8446 33.933 28.8111 33.9719 28.7636 34.0089C28.7214 34.0428 28.6572 34.0663 28.5743 34.0851C28.4915 34.1037 28.3938 34.1121 28.279 34.1121H27.669V34.7252H28.3008C28.4153 34.7252 28.5168 34.7321 28.6016 34.7453C28.6874 34.7557 28.7584 34.7791 28.8141 34.8114C28.8715 34.847 28.9137 34.8924 28.9408 34.948C28.9662 35.0037 28.98 35.0765 28.98 35.1645C28.98 35.259 28.963 35.3348 28.926 35.3958C28.8886 35.455 28.8329 35.5059 28.757 35.5513C28.6891 35.5919 28.6048 35.6239 28.5071 35.6427C28.4057 35.6628 28.296 35.6732 28.174 35.6732C28.049 35.6732 27.939 35.6612 27.8461 35.6376C27.7516 35.614 27.6488 35.5801 27.5373 35.5396C27.4508 35.5073 27.3632 35.4687 27.2769 35.4229C27.189 35.3775 27.125 35.3419 27.081 35.3166H27V36.0938C27.1776 36.1614 27.3731 36.217 27.5844 36.2559C27.7991 36.2981 28.029 36.3183 28.2754 36.3183C28.5558 36.3183 28.7941 36.2929 28.9899 36.2424C29.1842 36.1933 29.3532 36.1192 29.4934 36.0226C29.6284 35.9299 29.7316 35.8148 29.7991 35.6782C29.8667 35.5415 29.902 35.3894 29.902 35.2253C29.902 35.0767 29.877 34.9569 29.8279 34.8621C29.7791 34.7674 29.7164 34.6864 29.6385 34.6221ZM24.1282 34.884V32.8113H23.2665V36.2505H24.1096L25.5339 33.9618V36.2505H26.3952V32.8113H25.4525L24.1282 34.884ZM22.2783 34.3351C22.1617 34.2436 22.0266 34.1796 21.8747 34.1458C21.7224 34.1105 21.5267 34.0935 21.2869 34.0935H20.5706V33.4752H22.356V32.8115H19.6905V36.2507H21.2734C21.4899 36.2507 21.6719 36.2307 21.8222 36.1867C21.9745 36.1461 22.12 36.0683 22.2599 35.9551C22.3696 35.8657 22.4579 35.7509 22.5217 35.6106C22.586 35.4687 22.6165 35.315 22.6165 35.1478C22.6165 34.9807 22.5896 34.8268 22.5373 34.685C22.4827 34.5444 22.3967 34.4278 22.2783 34.3351ZM21.6684 35.3435C21.6466 35.3958 21.6143 35.4398 21.5721 35.4768C21.5315 35.5156 21.4727 35.5461 21.3952 35.5716C21.3174 35.597 21.2293 35.6087 21.1329 35.6087H20.5706V34.7321H21.1329C21.2617 34.7321 21.361 34.7453 21.4323 34.7692C21.5046 34.7945 21.562 34.8284 21.603 34.8688C21.6448 34.9128 21.6719 34.9581 21.6836 35.0108C21.6957 35.0613 21.7022 35.1157 21.7022 35.1728C21.7022 35.2356 21.6905 35.293 21.6684 35.3435ZM17.0247 33.0377C16.9098 32.9615 16.7777 32.904 16.6276 32.867C16.4775 32.8299 16.2952 32.8113 16.0754 32.8113H14.621V36.2505H15.5041V35.1306H16.0549C16.3048 35.1306 16.5143 35.0953 16.6833 35.026C16.8508 34.9567 17.0043 34.8536 17.1413 34.7199C17.2409 34.6189 17.3168 34.4955 17.3709 34.3484C17.4249 34.2016 17.4522 34.0509 17.4522 33.8972C17.4522 33.6982 17.4148 33.5275 17.3425 33.3855C17.2696 33.2439 17.1631 33.127 17.0247 33.0377ZM16.4994 34.1677C16.4737 34.237 16.4319 34.2945 16.3762 34.3453C16.3101 34.4007 16.2273 34.4365 16.1311 34.4565C16.0334 34.4735 15.9081 34.4834 15.758 34.4834H15.5041V33.4532H15.6564C15.8035 33.4532 15.9202 33.455 16.0061 33.4583C16.0955 33.4615 16.1855 33.4837 16.2764 33.519C16.3458 33.5477 16.4062 33.5968 16.4585 33.6661C16.5111 33.737 16.5363 33.8198 16.5363 33.9178C16.5363 34.0158 16.5246 34.1004 16.4994 34.1677ZM11.0597 33.475H12.1308V36.2505H13.0157V33.475H14.0887V32.8113H11.0597V33.475ZM9.64441 34.0699H8.33817V32.8113H7.45329V36.2505H8.33817V34.7351H9.64441V36.2505H10.5293V32.8113H9.64441V34.0699ZM4.22998 36.2505H6.70985V35.5851H5.11008V34.7351H6.59499V34.0697H5.11008V33.475H6.70985V32.8113H4.22998V36.2505ZM3.2889 32.8113H2.40366V35.5918H1.10504V32.8113H0.219449V36.2505H2.81437V37.0413H3.62871V35.5917H3.28908V32.8113H3.2889ZM64.3404 14.111C68.1969 11.3064 72.4316 8.91267 73.704 8.62037C75.5638 8.0799 76.5419 8.7558 75.6801 10.3756C78.1586 9.23511 80.7567 8.49877 83.5693 8.48051V4.68961H56.9193L56.8903 20.7902C58.5053 18.8815 61.2436 16.3628 64.3404 14.111ZM68.3167 14.1681C63.9773 16.7831 60.0831 20.1299 56.9193 24.6791V29.6774C60.9666 32.0562 69.5568 29.1117 78.3796 22.8645C80.1114 21.6382 81.8532 20.2848 83.5693 18.8205V10.3758C78.704 10.168 72.7055 12.9719 66.8199 17.9388C66.6731 18.062 66.2372 18.3424 66.0157 18.0974C65.474 17.3138 66.4133 15.9352 68.3167 14.1681ZM87.8721 0.547382C87.5172 0.182402 87.0852 0 86.5696 0C86.061 0 85.6285 0.180806 85.2706 0.542241C84.9124 0.903676 84.7333 1.33477 84.7333 1.83465C84.7333 2.33453 84.911 2.76562 85.2688 3.12706C85.6251 3.48849 86.0592 3.6693 86.5696 3.6693C87.0865 3.6693 87.5206 3.48513 87.8737 3.1189C88.2264 2.75197 88.4023 2.32478 88.4023 1.83483C88.4025 1.34133 88.2252 0.912362 87.8721 0.547382ZM87.6218 2.90903C87.3283 3.2047 86.9785 3.3536 86.5696 3.3536C86.1624 3.3536 85.8114 3.2047 85.5154 2.90761C85.2219 2.61017 85.0744 2.25015 85.0744 1.83305C85.0744 1.41419 85.2219 1.05577 85.5154 0.758677C85.8097 0.461233 86.1624 0.312688 86.5779 0.312688C86.9885 0.312688 87.3382 0.463005 87.6269 0.76169C87.9161 1.06091 88.0611 1.41738 88.0611 1.83465C88.0612 2.25352 87.9145 2.61194 87.6218 2.90903ZM87.4851 1.41224C87.4851 1.21796 87.4158 1.0625 87.2809 0.944091C87.1455 0.826035 86.9362 0.76683 86.6508 0.76683H85.6932V2.90052H86.2471V2.05091H86.5611L86.9059 2.90052H87.519L87.1067 1.96121C87.3584 1.85167 87.4851 1.66749 87.4851 1.41224ZM86.8383 1.60687C86.7823 1.65225 86.6829 1.67582 86.5357 1.67582H86.247V1.15716H86.5256C86.6423 1.15716 86.7199 1.1623 86.7607 1.1724C86.8009 1.1841 86.8365 1.21122 86.8704 1.25554C86.9023 1.29914 86.9192 1.35002 86.9192 1.40745C86.9193 1.49325 86.8924 1.56078 86.8383 1.60687Z" fill="white"/>
</svg>
