<svg width="43" height="43" viewBox="0 0 43 43" fill="none" xmlns="http://www.w3.org/2000/svg">
<path d="M7.69701 31.3151L7.99931 29.6004L9.7142 29.2889L8.1752 28.4678L8.40427 26.7432L7.15719 27.9582L5.58809 27.2103L6.35697 28.779L5.15162 30.0363L6.87689 29.7872L7.69701 31.3151ZM35.423 31.3258L36.2547 29.7978L37.9795 30.0363L36.7739 28.779L37.543 27.2103L35.9739 27.9582L34.7274 26.743L34.9559 28.4678L33.4176 29.2889L35.1328 29.6004L35.423 31.3258ZM5.02591 25.0172L5.98283 23.5622L7.68768 23.9786L6.59713 22.6173L7.49031 21.1209L5.85835 21.7341L4.71516 20.4145L4.79879 22.1498L3.19852 22.825L4.88172 23.2821L5.02591 25.0172ZM38.1251 24.9968L38.2707 23.2618L39.9542 22.8037L38.3541 22.1283L38.4365 20.3934L37.2937 21.7135L35.6623 21.1003L36.556 22.597L35.4651 23.9578L37.1581 23.5626L38.1251 24.9968ZM35.2045 18.263L36.6083 17.2238L38.0627 18.1797L37.5118 16.5275L38.8741 15.4362L37.1271 15.447L36.5049 13.815L35.9845 15.4778L34.2492 15.5609L35.6624 16.5689L35.2045 18.263ZM7.93664 18.2424L7.47957 16.5588L8.89267 15.5505L7.15701 15.4672L6.63815 13.8046L6.01452 15.4362L4.2676 15.4258L5.62911 16.5169L5.07908 18.1691L6.53392 17.2131L7.93664 18.2424ZM32.7008 13.1194L33.5736 11.6123L35.2883 11.9033L34.124 10.6045L34.9346 9.06599L33.3444 9.77272L32.129 8.52582L32.3057 10.2613L30.7469 11.0302L32.4517 11.3941L32.7008 13.1194ZM10.4408 13.1194L10.6905 11.3941L12.3952 11.0302L10.8363 10.2613L11.0134 8.52582L9.79765 9.77289L8.20742 9.06616L9.01768 10.6045L7.85406 11.9033L9.56859 11.6124L10.4408 13.1194ZM28.3677 9.419L28.5645 7.69443L30.2592 7.27839L28.6788 6.55124L28.8034 4.81593L27.6296 6.09417L26.019 5.42935L26.8708 6.9458L25.7489 8.26594L27.4525 7.92332L28.3677 9.419ZM14.7743 9.419L15.6895 7.933L17.3933 8.27615L16.2709 6.9458L17.1229 5.40822L15.512 6.07304L14.3372 4.79533L14.4629 6.53028L12.8837 7.25779L14.5768 7.67366L14.7743 9.419ZM23.0045 7.72489L22.4957 6.06283L23.8879 5.0133L22.143 4.98214L21.5708 3.33979L20.9988 4.98214L19.2542 5.0133L20.6452 6.06283L20.1375 7.72489L21.5708 6.72854L23.0045 7.72489ZM24.096 32.3542L24.8027 30.567H24.4074L23.941 31.8139C23.9199 31.8868 23.8993 31.9491 23.8778 31.9914C23.8577 31.9384 23.8366 31.8764 23.8158 31.8139L23.3479 30.567H22.9529L23.5979 32.1877C23.6282 32.2503 23.6697 32.2822 23.7435 32.2822H23.7532L23.7435 32.3026C23.6282 32.5829 23.4935 32.6764 23.2031 32.6764C23.182 32.6764 23.1514 32.6764 23.1197 32.6764H23.088L23.0457 32.9571H23.0781C23.1514 32.9673 23.2237 32.9673 23.2861 32.9673C23.681 32.9671 23.8989 32.7902 24.096 32.3542ZM29.8116 31.4191C29.8116 30.8163 29.6035 30.5872 29.0844 30.5872C28.8554 30.5872 28.6168 30.6184 28.4606 30.8369C28.4712 30.6805 28.5131 30.5254 28.6062 30.411C28.7415 30.2455 28.9804 30.2029 29.229 30.1613C29.3123 30.1409 29.4063 30.13 29.4896 30.1097L29.52 30.0995L29.4896 29.777L29.448 29.7872C29.3746 29.8083 29.3028 29.8185 29.229 29.8284C28.8969 29.8912 28.5344 29.9537 28.3154 30.2548C28.1391 30.5143 28.108 30.9827 28.108 31.2422C28.108 31.938 28.2427 32.3123 28.9596 32.3123C29.5519 32.3125 29.7906 32.063 29.8116 31.4191ZM29.3956 31.4396C29.3956 31.8137 29.3334 32.0007 28.9598 32.0007C28.6265 32.0007 28.5131 31.8662 28.5131 31.4396C28.5131 31.0448 28.6168 30.9198 28.9802 30.9198C29.3123 30.9198 29.4063 31.0344 29.3956 31.4396ZM17.903 32.2822H17.9338C18.2245 32.2822 18.4217 32.1459 18.5154 31.897C18.5777 31.7417 18.6304 31.46 18.6811 31.0552C18.6925 30.9829 18.7022 30.9307 18.7339 30.9101C18.7545 30.8888 18.8068 30.879 18.8689 30.879H19.2121V32.2715H19.5857V30.5571H18.8172C18.6721 30.5571 18.5465 30.5876 18.4744 30.6605C18.3907 30.7223 18.3495 30.8372 18.3286 30.9723C18.2456 31.7417 18.1629 31.8664 18.0793 31.9287C18.0476 31.9593 17.9754 31.9803 17.8923 32.0009L17.8609 32.0116L17.903 32.2822ZM14.275 32.2504H14.6708L14.6185 32.1253C14.4523 31.731 14.4111 31.6059 14.2338 31.4503C14.182 31.3985 14.1197 31.3774 14.0581 31.357C14.0778 31.357 14.0986 31.3459 14.1197 31.3364C14.328 31.2425 14.4523 30.9411 14.5873 30.5874L14.6074 30.5462H14.2232L14.2026 30.5874C14.1305 30.7853 14.0053 31.1079 13.8285 31.1906C13.7767 31.2214 13.7144 31.2318 13.631 31.2318H13.4436V30.5569H13.0707V32.2713H13.4436V31.5227H13.631C13.9741 31.5227 14.047 31.7206 14.2444 32.1986L14.2748 32.2713V32.2504H14.275ZM24.5636 23.4222H25.3746V23.1618H25.4268C26.7667 23.1312 26.9743 22.9127 26.9743 22.1126C26.9743 21.3124 26.7667 21.0943 25.4268 21.0635H25.3746V20.8034H24.5636V21.0635H24.5118C23.1713 21.0943 22.9633 21.3126 22.9633 22.1126C22.9633 22.9129 23.1713 23.1312 24.5118 23.1618H24.5636V23.4324V23.4222ZM25.3746 21.7704H26.0913V22.5181H25.3746V21.7704ZM23.8468 21.7704H24.5636V22.5181H23.8468V21.7704ZM15.8871 22.123C15.8871 20.9492 15.5851 20.9077 14.3282 20.9077C13.0707 20.9077 12.7684 20.9594 12.7684 22.123C12.7684 23.297 13.0598 23.3388 14.3282 23.3388C15.5851 23.3389 15.8871 23.2868 15.8871 22.123ZM13.6007 21.6345H15.0552V22.6014H13.6007V21.6345ZM30.0301 23.2868V22.6222H28.1694V22.3525H29.6975V21.8736H28.1694V21.614H30.0301V20.9494H27.3597V23.2872H30.0301V23.2868ZM32.9503 23.297H33.7604V20.9594H32.857V20.4608H31.7237L31.8693 20.8658L32.6072 20.9494L31.3601 22.6637V20.9494H30.5495V23.2868H31.7654L32.9501 21.6552V23.2868V23.297H32.9503ZM22.6005 23.2868V20.9492H21.4465L20.1987 22.6636V20.9492H19.3887V23.2867H20.6041L21.7888 21.6551V23.2867H22.6005V23.2868ZM16.313 23.2764H17.1232V22.7153H17.6951C18.8066 22.7153 19.0457 22.6842 19.0457 21.8424C19.0457 21.0217 18.8172 20.9492 17.6951 20.9492H16.3128V23.2867L16.313 23.2764ZM17.1125 21.6345H18.2555V22.0709H17.1125V21.6345ZM12.6232 23.2868L11.4083 22.0611L12.5091 20.9494H11.4602L10.7211 21.7174H10.3276V20.9494H9.5163V23.2868H10.3169V22.3725H10.7009L11.4497 23.2868H12.6232ZM39.0813 42.3597H4.06072C2.03719 42.3597 0.390625 40.7135 0.390625 38.6907V3.67009C0.390625 1.64622 2.03719 0 4.06072 0H39.0813C41.1038 0 42.7503 1.64622 42.7503 3.67009V38.6905C42.7503 40.7135 41.1038 42.3597 39.0813 42.3597ZM4.06072 0.792297C2.47419 0.792297 1.1831 2.08356 1.1831 3.67009V38.6905C1.1831 40.2772 2.47419 41.5674 4.06072 41.5674H39.0813C40.6669 41.5674 41.9587 40.2772 41.9587 38.6905V3.67009C41.9587 2.08356 40.6669 0.792297 39.0813 0.792297H4.06072Z" fill="white"/>
</svg>
