<svg width="199" height="144" viewBox="0 0 199 144" fill="none" xmlns="http://www.w3.org/2000/svg">
<path d="M15.4464 115.486L15.4254 104.563L10.0074 113.665H9.02185L3.6027 104.628V115.485H1.54688V100.494H3.30362L9.55636 111.03L15.7238 100.494H17.4806L17.5016 115.485H15.4464V115.486ZM20.7673 107.99C20.7673 103.6 24.1504 100.324 28.7545 100.324C33.3166 100.324 36.6997 103.579 36.6997 107.99C36.6997 112.402 33.3166 115.657 28.7545 115.657C24.1504 115.657 20.7673 112.38 20.7673 107.99ZM34.558 107.99C34.558 104.671 32.074 102.23 28.7539 102.23C25.3918 102.23 22.9084 104.671 22.9084 107.99C22.9084 111.309 25.3924 113.751 28.7539 113.751C32.0746 113.751 34.558 111.309 34.558 107.99ZM51.9141 100.495V115.486H49.8163V102.358H43.1774L43.0266 106.748C42.8344 112.701 41.9137 115.657 38.9576 115.657C38.53 115.657 38.1228 115.614 37.6087 115.486L37.7588 113.579C38.0159 113.644 38.2074 113.665 38.4441 113.665C40.3071 113.665 40.9492 111.46 41.1209 106.813L41.3557 100.495H51.9141ZM55.1582 107.99C55.1582 103.6 58.5413 100.324 63.1455 100.324C67.7076 100.324 71.09 103.579 71.09 107.99C71.09 112.402 67.7069 115.657 63.1455 115.657C58.5413 115.657 55.1582 112.38 55.1582 107.99ZM68.9496 107.99C68.9496 104.671 66.4655 102.23 63.1455 102.23C59.7834 102.23 57.2999 104.671 57.2999 107.99C57.2999 111.309 59.7834 113.751 63.1455 113.751C66.4655 113.751 68.9496 111.309 68.9496 107.99ZM88.393 113.622V118.761H86.4015V115.485H74.0666L74.0449 118.761H72.0534L72.075 113.622H72.8029C74.8587 113.493 75.3518 109.874 75.5014 105.313L75.6509 100.495H86.1871V113.622H88.393ZM75.6089 113.622H84.0676V102.358H77.4929L77.386 105.506C77.2569 109.168 76.8929 112.466 75.6089 113.622ZM102.082 113.622V115.486H91.204V100.495H101.782V102.358H93.3457V106.962H100.861V108.782H93.3457V113.622H102.082ZM118.669 108.889H115.822V115.486H113.723V108.889H110.853L106.655 115.486H104.15L109.096 107.691L104.514 100.495H106.805L110.809 107.005H113.723V100.495H115.821V107.005H118.691L122.717 100.495H125.008L120.425 107.733L125.373 115.486H122.867L118.669 108.889ZM141.004 100.495V115.486H138.863V108.804H130.253V115.486H128.112V100.495H130.253V106.941H138.863V100.495H141.004ZM155.469 111.737H147.504L145.855 115.485H143.649L150.437 100.494H152.557L159.367 115.485H157.119L155.469 111.737ZM154.719 110.024L151.486 102.679L148.253 110.024H154.719ZM173.556 100.495V115.486H171.458V111.117H167.324C167.131 111.117 166.939 111.117 166.745 111.096L163.747 115.486H161.477L164.796 110.731C162.676 110.024 161.477 108.312 161.477 105.892C161.477 102.465 163.855 100.496 167.538 100.496H173.556V100.495ZM167.495 109.318H171.458V102.357H167.625C165.075 102.357 163.641 103.557 163.641 105.87C163.641 108.076 164.947 109.318 167.495 109.318ZM1.54749 128.502H12.8542V130.322H3.66758V134.605H8.33658C11.9125 134.605 13.7971 136.126 13.7971 138.931C13.7971 141.865 11.7203 143.493 7.97201 143.493H1.54749V128.502ZM7.88735 141.8C10.3498 141.8 11.656 140.837 11.656 139.017C11.656 137.175 10.3924 136.298 7.88735 136.298H3.66758V141.8H7.88735ZM16.9337 128.502H19.0538V140.066L27.9191 128.502H29.8896V143.493H27.7906V131.949L18.9036 143.493H16.9337V128.502ZM44.5652 139.295C44.5652 142.057 41.6734 143.663 38.4194 143.663C36.4921 143.663 34.4147 143.107 32.7438 141.865L33.4933 140.28C34.8423 141.33 36.5768 141.822 38.1617 141.822C40.453 141.822 42.4019 140.815 42.4019 138.974C42.4019 137.432 41.0956 136.618 38.8902 136.618H35.5492V134.883H38.7395C40.6451 134.883 41.7809 134.048 41.7809 132.656C41.7809 131.029 40.1323 130.109 38.0758 130.109C36.7263 130.109 35.2272 130.494 33.8999 131.307L33.2147 129.551C34.778 128.673 36.5119 128.266 38.1401 128.266C41.2662 128.266 43.9436 129.787 43.9436 132.399C43.9436 133.941 43.0433 135.118 41.5665 135.676C43.4301 136.19 44.5652 137.518 44.5652 139.295ZM60.861 128.502V143.493H58.7199V136.811H50.1104V143.493H47.9693V128.502H50.1104V134.948H58.7199V128.502H60.861ZM76.0841 141.629V143.493H65.2056V128.502H75.785V130.365H67.3473V134.969H74.8637V136.79H67.3473V141.629H76.0841ZM77.8624 135.997C77.8624 131.565 81.2468 128.331 85.8077 128.331C88.1212 128.331 90.1331 129.123 91.5037 130.665L90.1121 132.014C88.9553 130.793 87.5422 130.237 85.8936 130.237C82.5098 130.237 80.0042 132.678 80.0042 135.997C80.0042 139.316 82.5098 141.758 85.8936 141.758C87.5422 141.758 88.9553 141.179 90.1121 139.959L91.5037 141.308C90.1331 142.85 88.1205 143.663 85.7867 143.663C81.2468 143.663 77.8624 140.43 77.8624 135.997ZM113.324 128.502V143.493H111.226V130.365H104.587L104.437 134.755C104.245 140.709 103.323 143.663 100.368 143.663C99.9407 143.663 99.5329 143.621 99.0188 143.493L99.1689 141.587C99.4254 141.651 99.6188 141.672 99.8536 141.672C101.717 141.672 102.36 139.467 102.53 134.82L102.766 128.502H113.324ZM117.658 128.502H119.779V140.066L128.644 128.502H130.615V143.493H128.516V131.949L119.629 143.493H117.658V128.502ZM144.767 130.365H137.057L137.078 143.493H134.958V128.502H144.788L144.767 130.365ZM155.227 139.745H147.26L145.612 143.492H143.406L150.195 128.501H152.315L159.125 143.492H156.876L155.227 139.745ZM154.478 138.032L151.245 130.686L148.011 138.032H154.478Z" fill="white"/>
<path d="M36.2173 42.713L11.2978 15.8242L0.90625 24.6722V71.6681H15.6999V40.9847L36.2167 63.8916L56.7341 40.9847V71.6681H71.5277V24.6722L61.1361 15.8242L36.2173 42.713ZM108.783 28.2352C105.131 28.2352 101.371 28.9433 97.7448 30.6722V18.249L123.483 14.4271V0.882324L83.7397 7.14864V51.621V51.6216C83.7397 65.484 94.6484 75.7439 108.17 75.7439C121.692 75.7439 132.785 65.1435 132.785 51.6216C132.785 37.7555 121.436 28.2352 108.783 28.2352ZM108.062 62.1256C102.214 62.1256 97.4568 57.4702 97.4568 51.6216C97.4568 45.7742 102.214 41.1151 108.062 41.1151C113.909 41.1151 118.667 45.7742 118.667 51.6216C118.667 57.4702 113.908 62.1256 108.062 62.1256ZM166.775 16.8623L134.609 66.1242L146.489 73.3594L166.775 42.2712L187.061 73.3594L198.942 66.1242L166.775 16.8623Z" fill="white"/>
</svg>
