<svg width="175" height="34" viewBox="0 0 175 34" fill="none" xmlns="http://www.w3.org/2000/svg">
<path d="M106.804 17.4709L106.795 12.7601L104.459 16.6858H104.034L101.697 12.7878V17.4709H100.81V11.0055H101.568L104.265 15.5498L106.925 11.0055H107.682L107.691 17.4712H106.804V17.4709ZM109.099 14.2382C109.099 12.3448 110.558 10.9316 112.544 10.9316C114.512 10.9316 115.971 12.3355 115.971 14.2382C115.971 16.1409 114.512 17.5451 112.544 17.5451C110.559 17.5448 109.099 16.1316 109.099 14.2382ZM115.048 14.2382C115.048 12.8066 113.976 11.7537 112.544 11.7537C111.094 11.7537 110.023 12.8066 110.023 14.2382C110.023 15.6698 111.094 16.7231 112.544 16.7231C113.977 16.7228 115.048 15.6698 115.048 14.2382ZM122.534 11.0055V17.4712H121.629V11.8091H118.765L118.7 13.7025C118.617 16.2705 118.22 17.5448 116.945 17.5448C116.761 17.5448 116.585 17.5263 116.363 17.4709L116.428 16.6489C116.539 16.6766 116.622 16.6858 116.724 16.6858C117.528 16.6858 117.804 15.7345 117.878 13.7302L117.98 11.0055H122.534ZM123.933 14.2382C123.933 12.3448 125.392 10.9316 127.378 10.9316C129.345 10.9316 130.804 12.3355 130.804 14.2382C130.804 16.1409 129.345 17.5451 127.378 17.5451C125.392 17.5448 123.933 16.1316 123.933 14.2382ZM129.881 14.2382C129.881 12.8066 128.81 11.7537 127.378 11.7537C125.928 11.7537 124.856 12.8066 124.856 14.2382C124.856 15.6698 125.928 16.7231 127.378 16.7231C128.81 16.7228 129.881 15.6698 129.881 14.2382ZM138.267 16.6673V18.884H137.409V17.4709H132.088L132.079 18.884H131.22L131.229 16.6673H131.543C132.43 16.6119 132.643 15.051 132.707 13.0837L132.772 11.0055H137.316V16.6673H138.267ZM132.753 16.6673H136.402V11.8091H133.566L133.52 13.1668C133.464 14.7462 133.307 16.1686 132.753 16.6673ZM144.172 16.6673V17.4709H139.48V11.0055H144.043V11.8091H140.404V13.7949H143.646V14.58H140.404V16.6673H144.172ZM151.326 14.6261H150.098V17.4709H149.193V14.6261H147.955L146.144 17.4709H145.064L147.197 14.1089L145.221 11.0055H146.209L147.936 13.8133H149.193V11.0055H150.098V13.8133H151.335L153.072 11.0055H154.06L152.083 14.1277L154.217 17.4712H153.137L151.326 14.6261ZM160.96 11.0055V17.4712H160.036V14.5895H156.323V17.4712H155.399V11.0055H156.323V13.7856H160.036V11.0055H160.96ZM167.199 15.8546H163.763L163.051 17.4709H162.1L165.028 11.0052H165.942L168.88 17.4709H167.91L167.199 15.8546ZM166.875 15.1157L165.481 11.9476L164.086 15.1157H166.875ZM175 11.0055V17.4712H174.094V15.5871H172.312C172.228 15.5871 172.145 15.5871 172.062 15.5778L170.769 17.4712H169.79L171.221 15.4208C170.307 15.116 169.79 14.3771 169.79 13.3334C169.79 11.8556 170.815 11.0059 172.404 11.0059H175V11.0055ZM172.386 14.8109H174.095V11.8091H172.442C171.342 11.8091 170.724 12.3263 170.724 13.3238C170.723 14.2752 171.287 14.8109 172.386 14.8109ZM100.81 23.0851H105.687V23.8702H101.724V25.7174H103.738C105.281 25.7174 106.093 26.3732 106.093 27.5832C106.093 28.8485 105.198 29.5505 103.581 29.5505H100.81V23.0851H100.81ZM103.544 28.8212C104.606 28.8212 105.17 28.4055 105.17 27.6204C105.17 26.8261 104.625 26.4474 103.544 26.4474H101.724V28.8212H103.544ZM107.446 23.0851H108.361V28.073L112.184 23.0851H113.034V29.5508H112.129V24.5721L108.296 29.5508H107.446V23.0851ZM119.364 27.7405C119.364 28.932 118.117 29.6247 116.713 29.6247C115.882 29.6247 114.986 29.3846 114.265 28.8489L114.588 28.1654C115.17 28.618 115.918 28.8304 116.602 28.8304C117.59 28.8304 118.431 28.3963 118.431 27.602C118.431 26.937 117.867 26.586 116.916 26.586H115.475V25.8379H116.851C117.672 25.8379 118.162 25.4776 118.162 24.8773C118.162 24.175 117.451 23.7782 116.564 23.7782C115.982 23.7782 115.336 23.9444 114.763 24.2954L114.468 23.538C115.142 23.1593 115.89 22.9839 116.592 22.9839C117.941 22.9839 119.095 23.6396 119.095 24.7665C119.095 25.4315 118.707 25.9395 118.07 26.18C118.874 26.4013 119.364 26.9739 119.364 27.7405ZM126.393 23.0851V29.5508H125.469V26.6691H121.756V29.5508H120.832V23.0851H121.756V25.8652H125.469V23.0851H126.393ZM132.958 28.7473V29.5508H128.266V23.0851H132.829V23.8887H129.19V25.8744H132.432V26.6595H129.19V28.7469H132.958V28.7473ZM133.726 26.3181C133.726 24.4062 135.185 23.0116 137.152 23.0116C138.15 23.0116 139.018 23.3533 139.609 24.0183L139.009 24.6002C138.51 24.0737 137.901 23.8336 137.19 23.8336C135.73 23.8336 134.65 24.8865 134.65 26.3181C134.65 27.7498 135.73 28.803 137.19 28.803C137.901 28.803 138.51 28.5537 139.009 28.0272L139.609 28.6091C139.018 29.2741 138.15 29.6251 137.143 29.6251C135.185 29.6247 133.726 28.23 133.726 26.3181ZM149.021 23.0851V29.5508H148.116V23.889H145.252L145.188 25.7824C145.104 28.3505 144.707 29.6247 143.433 29.6247C143.248 29.6247 143.072 29.6062 142.85 29.5508L142.915 28.7288C143.026 28.7565 143.109 28.7657 143.211 28.7657C144.015 28.7657 144.292 27.8144 144.366 25.8101L144.467 23.0855H149.021V23.0851ZM150.89 23.0851H151.805V28.073L155.628 23.0851H156.478V29.5508H155.573V24.5721L151.74 29.5508H150.89V23.0851ZM162.583 23.889H159.257L159.266 29.5508H158.352V23.0851H162.592L162.583 23.889ZM167.094 27.9345H163.658L162.947 29.5508H161.995L164.923 23.0851H165.838L168.775 29.5508H167.805L167.094 27.9345ZM166.771 27.1956L165.376 24.0276L163.981 27.1956H166.771Z" fill="white"/>
<path d="M15.946 18.8899L4.69272 6.74742L0 10.7432V31.9659H6.68064V18.1094L15.946 28.454L25.2114 18.1094V31.9655H31.892V10.7432L27.1993 6.74742L15.946 18.8899ZM48.7155 12.352C47.0664 12.352 45.3687 12.6718 43.7307 13.4529V7.84227L55.3538 6.11687V0L37.406 2.82984V22.9126V22.913C37.406 29.173 42.3325 33.8064 48.4387 33.8064C54.5453 33.8064 59.5549 29.0192 59.5549 22.913C59.5545 16.6512 54.4298 12.352 48.7155 12.352ZM48.3901 27.6565C45.7492 27.6565 43.6007 25.5542 43.6007 22.913C43.6007 20.2725 45.7492 18.1684 48.3901 18.1684C51.0306 18.1684 53.1787 20.2725 53.1787 22.913C53.179 25.5542 51.0306 27.6565 48.3901 27.6565ZM74.9041 7.21599L60.3783 29.4622L65.7432 32.7293L74.9041 18.6902L84.065 32.729L89.4298 29.4618L74.9041 7.21599Z" fill="white"/>
</svg>
